  0
SECTION
  2
HEADER
  9
$ACADVER
  1
AC1009
  9
$FILLMODE
 70
1
  9
$EXTMIN
 10
0.0000
 20
0.0000
 30
0.0000
  9
$EXTMAX
 10
200.0000
 20
153.6403
 30
0.0000
  0
ENDSEC
  0
SECTION
  2
TABLES
  0
TABLE
  2
LTYPE
 70
1
  0
LTYPE
  2
CONTINUOUS
 70
64
  3
Solid line
 72
65
 73
0
 40
0
  0
ENDTAB
  0
TABLE
  2
LAYER
 70
255
  0
LAYER
  2
20
 70
64
 62
31
  6
CONTINUOUS
  0
LAYER
  2
29
 70
64
 62
253
  6
CONTINUOUS
  0
ENDTAB
  0
ENDSEC
  0
SECTION
  2
BLOCKS
  0
BLOCK
  8
0
  2
RECT
 70
64
 10
0.0000
 20
0.0000
 30
0.0000
  3
RECT
  0
SOLID
  8
0
 10
-0.5000
 20
-0.5000
 30
0.0000
 11
0.5000
 21
-0.5000
 31
0.0000
 12
-0.5000
 22
0.5000
 32
0.0000
 13
0.5000
 23
0.5000
 33
0.0000
  0
ENDBLK
  8
0
  0
BLOCK
  8
0
  2
PIE
 70
64
 10
0.0000
 20
0.0000
 30
0.0000
  3
PIE
  0
POLYLINE
  8
0
 66
1
 10
0.0000
 20
0.0000
 30
0.0000
 40
0.5000
 41
0.5000
 70
0
  0
VERTEX
  8
0
 10
0.0000
 20
-0.2500
 30
0.0000
 42
1.0000
  0
VERTEX
  8
0
 10
0.0000
 20
0.2500
 30
0.0000
 42
1.0000
  0
VERTEX
  8
0
 10
0.0000
 20
-0.2500
 30
0.0000
  0
SEQEND
  8
0
  0
ENDBLK
  8
0
  0
BLOCK
  8
0
  2
OCTAGONP
 70
64
 10
0.0000
 20
0.0000
 30
0.0000
  3
OCTAGONP
  0
POLYLINE
  8
0
 66
1
 10
0.0000
 20
0.0000
 30
0.0000
 40
0.5000
 41
0.5000
 70
0
  0
VERTEX
  8
0
 10
-0.2500
 20
-0.1036
 30
0.0000
  0
VERTEX
  8
0
 10
-0.2500
 20
0.1036
 30
0.0000
  0
VERTEX
  8
0
 10
-0.1036
 20
0.2500
 30
0.0000
  0
VERTEX
  8
0
 10
0.1036
 20
0.2500
 30
0.0000
  0
VERTEX
  8
0
 10
0.2500
 20
0.1036
 30
0.0000
  0
VERTEX
  8
0
 10
0.2500
 20
-0.1036
 30
0.0000
  0
VERTEX
  8
0
 10
0.1036
 20
-0.2500
 30
0.0000
  0
VERTEX
  8
0
 10
-0.1036
 20
-0.2500
 30
0.0000
  0
VERTEX
  8
0
 10
-0.2500
 20
-0.1036
 30
0.0000
  0
VERTEX
  8
0
 10
-0.2500
 20
0.1036
 30
0.0000
  0
SEQEND
  8
0
  0
ENDBLK
  8
0
  0
BLOCK
  8
0
  2
SQUAREP
 70
64
 10
0.0000
 20
0.0000
 30
0.0000
  3
SQUAREP
  0
SOLID
  8
0
 10
-0.5000
 20
-0.5000
 30
0.0000
 11
0.5000
 21
-0.5000
 31
0.0000
 12
-0.5000
 22
0.5000
 32
0.0000
 13
0.5000
 23
0.5000
 33
0.0000
  0
ENDBLK
  8
0
  0
BLOCK
  8
0
  2
ROUNDP
 70
64
 10
0.0000
 20
0.0000
 30
0.0000
  3
ROUNDP
  0
POLYLINE
  8
0
 66
1
 10
0.0000
 20
0.0000
 30
0.0000
 40
0.5000
 41
0.5000
 70
0
  0
VERTEX
  8
0
 10
0.0000
 20
-0.2500
 30
0.0000
 42
1.0000
  0
VERTEX
  8
0
 10
0.0000
 20
0.2500
 30
0.0000
 42
1.0000
  0
VERTEX
  8
0
 10
0.0000
 20
-0.2500
 30
0.0000
  0
SEQEND
  8
0
  0
ENDBLK
  8
0
  0
BLOCK
  8
0
  2
ANNULUSP
 70
64
 10
0.0000
 20
0.0000
 30
0.0000
  3
ANNULUSP
  0
POLYLINE
  8
0
 66
1
 10
0.0000
 20
0.0000
 30
0.0000
 40
0.5000
 41
0.5000
 70
0
  0
VERTEX
  8
0
 10
0.0000
 20
-0.2500
 30
0.0000
 42
1.0000
  0
VERTEX
  8
0
 10
0.0000
 20
0.2500
 30
0.0000
 42
1.0000
  0
VERTEX
  8
0
 10
0.0000
 20
-0.2500
 30
0.0000
  0
SEQEND
  8
0
  0
ENDBLK
  8
0
  0
BLOCK
  8
0
  2
THERMALP
 70
64
 10
0.0000
 20
0.0000
 30
0.0000
  3
THERMALP
  0
POLYLINE
  8
0
 66
1
 10
0.0000
 20
0.0000
 30
0.0000
 40
0.1000
 41
0.1000
 70
0
  0
VERTEX
  8
0
 10
-0.2379
 20
0.4500
 30
0.0000
  0
VERTEX
  8
0
 10
0.2379
 20
0.4500
 30
0.0000
  0
SEQEND
  8
0
  0
POLYLINE
  8
0
 66
1
 10
0.0000
 20
0.0000
 30
0.0000
 40
0.0500
 41
0.0500
 70
0
  0
VERTEX
  8
0
 10
0.2379
 20
0.4250
 30
0.0000
 42
1.0000
  0
VERTEX
  8
0
 10
0.2379
 20
0.4750
 30
0.0000
  0
SEQEND
  8
0
  0
POLYLINE
  8
0
 66
1
 10
0.0000
 20
0.0000
 30
0.0000
 40
0.0500
 41
0.0500
 70
0
  0
VERTEX
  8
0
 10
-0.2379
 20
0.4750
 30
0.0000
 42
1.0000
  0
VERTEX
  8
0
 10
-0.2379
 20
0.4250
 30
0.0000
  0
SEQEND
  8
0
  0
POLYLINE
  8
0
 66
1
 10
0.0000
 20
0.0000
 30
0.0000
 40
0.1000
 41
0.1000
 70
0
  0
VERTEX
  8
0
 10
0.4500
 20
0.2379
 30
0.0000
  0
VERTEX
  8
0
 10
0.4500
 20
-0.2379
 30
0.0000
  0
SEQEND
  8
0
  0
POLYLINE
  8
0
 66
1
 10
0.0000
 20
0.0000
 30
0.0000
 40
0.0500
 41
0.0500
 70
0
  0
VERTEX
  8
0
 10
0.4250
 20
-0.2379
 30
0.0000
 42
1.0000
  0
VERTEX
  8
0
 10
0.4750
 20
-0.2379
 30
0.0000
  0
SEQEND
  8
0
  0
POLYLINE
  8
0
 66
1
 10
0.0000
 20
0.0000
 30
0.0000
 40
0.0500
 41
0.0500
 70
0
  0
VERTEX
  8
0
 10
0.4750
 20
0.2379
 30
0.0000
 42
1.0000
  0
VERTEX
  8
0
 10
0.4250
 20
0.2379
 30
0.0000
  0
SEQEND
  8
0
  0
POLYLINE
  8
0
 66
1
 10
0.0000
 20
0.0000
 30
0.0000
 40
0.1000
 41
0.1000
 70
0
  0
VERTEX
  8
0
 10
0.2379
 20
-0.4500
 30
0.0000
  0
VERTEX
  8
0
 10
-0.2379
 20
-0.4500
 30
0.0000
  0
SEQEND
  8
0
  0
POLYLINE
  8
0
 66
1
 10
0.0000
 20
0.0000
 30
0.0000
 40
0.0500
 41
0.0500
 70
0
  0
VERTEX
  8
0
 10
-0.2379
 20
-0.4250
 30
0.0000
 42
1.0000
  0
VERTEX
  8
0
 10
-0.2379
 20
-0.4750
 30
0.0000
  0
SEQEND
  8
0
  0
POLYLINE
  8
0
 66
1
 10
0.0000
 20
0.0000
 30
0.0000
 40
0.0500
 41
0.0500
 70
0
  0
VERTEX
  8
0
 10
0.2379
 20
-0.4750
 30
0.0000
 42
1.0000
  0
VERTEX
  8
0
 10
0.2379
 20
-0.4250
 30
0.0000
  0
SEQEND
  8
0
  0
POLYLINE
  8
0
 66
1
 10
0.0000
 20
0.0000
 30
0.0000
 40
0.1000
 41
0.1000
 70
0
  0
VERTEX
  8
0
 10
-0.4500
 20
-0.2379
 30
0.0000
  0
VERTEX
  8
0
 10
-0.4500
 20
0.2379
 30
0.0000
  0
SEQEND
  8
0
  0
POLYLINE
  8
0
 66
1
 10
0.0000
 20
0.0000
 30
0.0000
 40
0.0500
 41
0.0500
 70
0
  0
VERTEX
  8
0
 10
-0.4250
 20
0.2379
 30
0.0000
 42
1.0000
  0
VERTEX
  8
0
 10
-0.4750
 20
0.2379
 30
0.0000
  0
SEQEND
  8
0
  0
POLYLINE
  8
0
 66
1
 10
0.0000
 20
0.0000
 30
0.0000
 40
0.0500
 41
0.0500
 70
0
  0
VERTEX
  8
0
 10
-0.4750
 20
-0.2379
 30
0.0000
 42
1.0000
  0
VERTEX
  8
0
 10
-0.4250
 20
-0.2379
 30
0.0000
  0
SEQEND
  8
0
  0
ENDBLK
  8
0
  0
BLOCK
  8
0
  2
OCTAGONV
 70
64
 10
0.0000
 20
0.0000
 30
0.0000
  3
OCTAGONV
  0
POLYLINE
  8
0
 66
1
 10
0.0000
 20
0.0000
 30
0.0000
 40
0.5000
 41
0.5000
 70
0
  0
VERTEX
  8
0
 10
-0.2500
 20
-0.1036
 30
0.0000
  0
VERTEX
  8
0
 10
-0.2500
 20
0.1036
 30
0.0000
  0
VERTEX
  8
0
 10
-0.1036
 20
0.2500
 30
0.0000
  0
VERTEX
  8
0
 10
0.1036
 20
0.2500
 30
0.0000
  0
VERTEX
  8
0
 10
0.2500
 20
0.1036
 30
0.0000
  0
VERTEX
  8
0
 10
0.2500
 20
-0.1036
 30
0.0000
  0
VERTEX
  8
0
 10
0.1036
 20
-0.2500
 30
0.0000
  0
VERTEX
  8
0
 10
-0.1036
 20
-0.2500
 30
0.0000
  0
VERTEX
  8
0
 10
-0.2500
 20
-0.1036
 30
0.0000
  0
VERTEX
  8
0
 10
-0.2500
 20
0.1036
 30
0.0000
  0
SEQEND
  8
0
  0
ENDBLK
  8
0
  0
BLOCK
  8
0
  2
SQUAREV
 70
64
 10
0.0000
 20
0.0000
 30
0.0000
  3
SQUAREV
  0
SOLID
  8
0
 10
-0.5000
 20
-0.5000
 30
0.0000
 11
0.5000
 21
-0.5000
 31
0.0000
 12
-0.5000
 22
0.5000
 32
0.0000
 13
0.5000
 23
0.5000
 33
0.0000
  0
ENDBLK
  8
0
  0
BLOCK
  8
0
  2
ROUNDV
 70
64
 10
0.0000
 20
0.0000
 30
0.0000
  3
ROUNDV
  0
POLYLINE
  8
0
 66
1
 10
0.0000
 20
0.0000
 30
0.0000
 40
0.5000
 41
0.5000
 70
0
  0
VERTEX
  8
0
 10
0.0000
 20
-0.2500
 30
0.0000
 42
1.0000
  0
VERTEX
  8
0
 10
0.0000
 20
0.2500
 30
0.0000
 42
1.0000
  0
VERTEX
  8
0
 10
0.0000
 20
-0.2500
 30
0.0000
  0
SEQEND
  8
0
  0
ENDBLK
  8
0
  0
BLOCK
  8
0
  2
ANNULUSV
 70
64
 10
0.0000
 20
0.0000
 30
0.0000
  3
ANNULUSV
  0
POLYLINE
  8
0
 66
1
 10
0.0000
 20
0.0000
 30
0.0000
 40
0.5000
 41
0.5000
 70
0
  0
VERTEX
  8
0
 10
0.0000
 20
-0.2500
 30
0.0000
 42
1.0000
  0
VERTEX
  8
0
 10
0.0000
 20
0.2500
 30
0.0000
 42
1.0000
  0
VERTEX
  8
0
 10
0.0000
 20
-0.2500
 30
0.0000
  0
SEQEND
  8
0
  0
ENDBLK
  8
0
  0
BLOCK
  8
0
  2
THERMALV
 70
64
 10
0.0000
 20
0.0000
 30
0.0000
  3
THERMALV
  0
POLYLINE
  8
0
 66
1
 10
0.0000
 20
0.0000
 30
0.0000
 40
0.1000
 41
0.1000
 70
0
  0
VERTEX
  8
0
 10
-0.2379
 20
0.4500
 30
0.0000
  0
VERTEX
  8
0
 10
0.2379
 20
0.4500
 30
0.0000
  0
SEQEND
  8
0
  0
POLYLINE
  8
0
 66
1
 10
0.0000
 20
0.0000
 30
0.0000
 40
0.0500
 41
0.0500
 70
0
  0
VERTEX
  8
0
 10
0.2379
 20
0.4250
 30
0.0000
 42
1.0000
  0
VERTEX
  8
0
 10
0.2379
 20
0.4750
 30
0.0000
  0
SEQEND
  8
0
  0
POLYLINE
  8
0
 66
1
 10
0.0000
 20
0.0000
 30
0.0000
 40
0.0500
 41
0.0500
 70
0
  0
VERTEX
  8
0
 10
-0.2379
 20
0.4750
 30
0.0000
 42
1.0000
  0
VERTEX
  8
0
 10
-0.2379
 20
0.4250
 30
0.0000
  0
SEQEND
  8
0
  0
POLYLINE
  8
0
 66
1
 10
0.0000
 20
0.0000
 30
0.0000
 40
0.1000
 41
0.1000
 70
0
  0
VERTEX
  8
0
 10
0.4500
 20
0.2379
 30
0.0000
  0
VERTEX
  8
0
 10
0.4500
 20
-0.2379
 30
0.0000
  0
SEQEND
  8
0
  0
POLYLINE
  8
0
 66
1
 10
0.0000
 20
0.0000
 30
0.0000
 40
0.0500
 41
0.0500
 70
0
  0
VERTEX
  8
0
 10
0.4250
 20
-0.2379
 30
0.0000
 42
1.0000
  0
VERTEX
  8
0
 10
0.4750
 20
-0.2379
 30
0.0000
  0
SEQEND
  8
0
  0
POLYLINE
  8
0
 66
1
 10
0.0000
 20
0.0000
 30
0.0000
 40
0.0500
 41
0.0500
 70
0
  0
VERTEX
  8
0
 10
0.4750
 20
0.2379
 30
0.0000
 42
1.0000
  0
VERTEX
  8
0
 10
0.4250
 20
0.2379
 30
0.0000
  0
SEQEND
  8
0
  0
POLYLINE
  8
0
 66
1
 10
0.0000
 20
0.0000
 30
0.0000
 40
0.1000
 41
0.1000
 70
0
  0
VERTEX
  8
0
 10
0.2379
 20
-0.4500
 30
0.0000
  0
VERTEX
  8
0
 10
-0.2379
 20
-0.4500
 30
0.0000
  0
SEQEND
  8
0
  0
POLYLINE
  8
0
 66
1
 10
0.0000
 20
0.0000
 30
0.0000
 40
0.0500
 41
0.0500
 70
0
  0
VERTEX
  8
0
 10
-0.2379
 20
-0.4250
 30
0.0000
 42
1.0000
  0
VERTEX
  8
0
 10
-0.2379
 20
-0.4750
 30
0.0000
  0
SEQEND
  8
0
  0
POLYLINE
  8
0
 66
1
 10
0.0000
 20
0.0000
 30
0.0000
 40
0.0500
 41
0.0500
 70
0
  0
VERTEX
  8
0
 10
0.2379
 20
-0.4750
 30
0.0000
 42
1.0000
  0
VERTEX
  8
0
 10
0.2379
 20
-0.4250
 30
0.0000
  0
SEQEND
  8
0
  0
POLYLINE
  8
0
 66
1
 10
0.0000
 20
0.0000
 30
0.0000
 40
0.1000
 41
0.1000
 70
0
  0
VERTEX
  8
0
 10
-0.4500
 20
-0.2379
 30
0.0000
  0
VERTEX
  8
0
 10
-0.4500
 20
0.2379
 30
0.0000
  0
SEQEND
  8
0
  0
POLYLINE
  8
0
 66
1
 10
0.0000
 20
0.0000
 30
0.0000
 40
0.0500
 41
0.0500
 70
0
  0
VERTEX
  8
0
 10
-0.4250
 20
0.2379
 30
0.0000
 42
1.0000
  0
VERTEX
  8
0
 10
-0.4750
 20
0.2379
 30
0.0000
  0
SEQEND
  8
0
  0
POLYLINE
  8
0
 66
1
 10
0.0000
 20
0.0000
 30
0.0000
 40
0.0500
 41
0.0500
 70
0
  0
VERTEX
  8
0
 10
-0.4750
 20
-0.2379
 30
0.0000
 42
1.0000
  0
VERTEX
  8
0
 10
-0.4250
 20
-0.2379
 30
0.0000
  0
SEQEND
  8
0
  0
ENDBLK
  8
0
  0
BLOCK
  8
0
  2
LONGP100
 70
64
 10
0.0000
 20
0.0000
 30
0.0000
  3
LONGP100
  0
POLYLINE
  8
0
 66
1
 10
0.0000
 20
0.0000
 30
0.0000
 40
1.0000
 41
1.0000
 70
0
  0
VERTEX
  8
0
 10
-0.5000
 20
0.0000
 30
0.0000
  0
VERTEX
  8
0
 10
0.5000
 20
0.0000
 30
0.0000
  0
SEQEND
  8
0
  0
POLYLINE
  8
0
 66
1
 10
0.0000
 20
0.0000
 30
0.0000
 40
0.5000
 41
0.5000
 70
0
  0
VERTEX
  8
0
 10
0.5000
 20
-0.2500
 30
0.0000
 42
1.0000
  0
VERTEX
  8
0
 10
0.5000
 20
0.2500
 30
0.0000
  0
SEQEND
  8
0
  0
POLYLINE
  8
0
 66
1
 10
0.0000
 20
0.0000
 30
0.0000
 40
0.5000
 41
0.5000
 70
0
  0
VERTEX
  8
0
 10
-0.5000
 20
0.2500
 30
0.0000
 42
1.0000
  0
VERTEX
  8
0
 10
-0.5000
 20
-0.2500
 30
0.0000
  0
SEQEND
  8
0
  0
ENDBLK
  8
0
  0
ENDSEC
  0
SECTION
  2
ENTITIES
  0
LINE
  8
20
 10
0.0000
 20
0.0000
 30
0.0000
 11
200.0000
 21
0.0000
 31
0.0000
  0
LINE
  8
20
 10
200.0000
 20
0.0000
 30
0.0000
 11
200.0000
 21
152.0000
 31
0.0000
  0
LINE
  8
20
 10
200.0000
 20
152.0000
 30
0.0000
 11
0.0000
 21
152.0000
 31
0.0000
  0
LINE
  8
20
 10
0.0000
 20
152.0000
 30
0.0000
 11
0.0000
 21
0.0000
 31
0.0000
  0
CIRCLE
  8
20
 10
4.0000
 20
4.0000
 30
0.0000
 40
0.0600
  0
POLYLINE
  8
29
 66
1
 10
0.0000
 20
0.0000
 30
0.0000
 40
0.1616
 41
0.1616
 70
0
  0
VERTEX
  8
29
 10
4.0000
 20
3.9192
 30
0.0000
 42
1.0000
  0
VERTEX
  8
29
 10
4.0000
 20
4.0808
 30
0.0000
 42
1.0000
  0
VERTEX
  8
29
 10
4.0000
 20
3.9192
 30
0.0000
  0
SEQEND
  8
0
  0
CIRCLE
  8
20
 10
196.0000
 20
148.0000
 30
0.0000
 40
0.0600
  0
POLYLINE
  8
29
 66
1
 10
0.0000
 20
0.0000
 30
0.0000
 40
0.1616
 41
0.1616
 70
0
  0
VERTEX
  8
29
 10
196.0000
 20
147.9192
 30
0.0000
 42
1.0000
  0
VERTEX
  8
29
 10
196.0000
 20
148.0808
 30
0.0000
 42
1.0000
  0
VERTEX
  8
29
 10
196.0000
 20
147.9192
 30
0.0000
  0
SEQEND
  8
0
  0
CIRCLE
  8
20
 10
4.0000
 20
148.0000
 30
0.0000
 40
0.0600
  0
POLYLINE
  8
29
 66
1
 10
0.0000
 20
0.0000
 30
0.0000
 40
0.1616
 41
0.1616
 70
0
  0
VERTEX
  8
29
 10
4.0000
 20
147.9192
 30
0.0000
 42
1.0000
  0
VERTEX
  8
29
 10
4.0000
 20
148.0808
 30
0.0000
 42
1.0000
  0
VERTEX
  8
29
 10
4.0000
 20
147.9192
 30
0.0000
  0
SEQEND
  8
0
  0
CIRCLE
  8
20
 10
196.0000
 20
4.0000
 30
0.0000
 40
0.0600
  0
POLYLINE
  8
29
 66
1
 10
0.0000
 20
0.0000
 30
0.0000
 40
0.1616
 41
0.1616
 70
0
  0
VERTEX
  8
29
 10
196.0000
 20
3.9192
 30
0.0000
 42
1.0000
  0
VERTEX
  8
29
 10
196.0000
 20
4.0808
 30
0.0000
 42
1.0000
  0
VERTEX
  8
29
 10
196.0000
 20
3.9192
 30
0.0000
  0
SEQEND
  8
0
  0
CIRCLE
  8
20
 10
4.0000
 20
148.0000
 30
0.0000
 40
1.5000
  0
POLYLINE
  8
29
 66
1
 10
0.0000
 20
0.0000
 30
0.0000
 40
1.6016
 41
1.6016
 70
0
  0
VERTEX
  8
29
 10
4.0000
 20
147.1992
 30
0.0000
 42
1.0000
  0
VERTEX
  8
29
 10
4.0000
 20
148.8008
 30
0.0000
 42
1.0000
  0
VERTEX
  8
29
 10
4.0000
 20
147.1992
 30
0.0000
  0
SEQEND
  8
0
  0
CIRCLE
  8
20
 10
4.0000
 20
4.0000
 30
0.0000
 40
1.5000
  0
POLYLINE
  8
29
 66
1
 10
0.0000
 20
0.0000
 30
0.0000
 40
1.6016
 41
1.6016
 70
0
  0
VERTEX
  8
29
 10
4.0000
 20
3.1992
 30
0.0000
 42
1.0000
  0
VERTEX
  8
29
 10
4.0000
 20
4.8008
 30
0.0000
 42
1.0000
  0
VERTEX
  8
29
 10
4.0000
 20
3.1992
 30
0.0000
  0
SEQEND
  8
0
  0
CIRCLE
  8
20
 10
196.0000
 20
4.0000
 30
0.0000
 40
1.5000
  0
POLYLINE
  8
29
 66
1
 10
0.0000
 20
0.0000
 30
0.0000
 40
1.6016
 41
1.6016
 70
0
  0
VERTEX
  8
29
 10
196.0000
 20
3.1992
 30
0.0000
 42
1.0000
  0
VERTEX
  8
29
 10
196.0000
 20
4.8008
 30
0.0000
 42
1.0000
  0
VERTEX
  8
29
 10
196.0000
 20
3.1992
 30
0.0000
  0
SEQEND
  8
0
  0
CIRCLE
  8
20
 10
196.0000
 20
148.0000
 30
0.0000
 40
1.5000
  0
POLYLINE
  8
29
 66
1
 10
0.0000
 20
0.0000
 30
0.0000
 40
1.6016
 41
1.6016
 70
0
  0
VERTEX
  8
29
 10
196.0000
 20
147.1992
 30
0.0000
 42
1.0000
  0
VERTEX
  8
29
 10
196.0000
 20
148.8008
 30
0.0000
 42
1.0000
  0
VERTEX
  8
29
 10
196.0000
 20
147.1992
 30
0.0000
  0
SEQEND
  8
0
  0
INSERT
  8
29
  2
LONGP100
 10
166.1900
 20
138.0000
 30
0.0000
 41
1.6256
 42
1.6256
 43
1.0000
 50
90.0000
  0
INSERT
  8
29
  2
LONGP100
 10
168.7300
 20
138.0000
 30
0.0000
 41
1.6256
 42
1.6256
 43
1.0000
 50
90.0000
  0
INSERT
  8
29
  2
LONGP100
 10
171.2700
 20
138.0000
 30
0.0000
 41
1.6256
 42
1.6256
 43
1.0000
 50
90.0000
  0
INSERT
  8
29
  2
LONGP100
 10
173.8100
 20
138.0000
 30
0.0000
 41
1.6256
 42
1.6256
 43
1.0000
 50
90.0000
  0
INSERT
  8
29
  2
LONGP100
 10
166.1900
 20
142.0000
 30
0.0000
 41
1.6256
 42
1.6256
 43
1.0000
 50
90.0000
  0
INSERT
  8
29
  2
LONGP100
 10
168.7300
 20
142.0000
 30
0.0000
 41
1.6256
 42
1.6256
 43
1.0000
 50
90.0000
  0
INSERT
  8
29
  2
LONGP100
 10
171.2700
 20
142.0000
 30
0.0000
 41
1.6256
 42
1.6256
 43
1.0000
 50
90.0000
  0
INSERT
  8
29
  2
LONGP100
 10
173.8100
 20
142.0000
 30
0.0000
 41
1.6256
 42
1.6256
 43
1.0000
 50
90.0000
  0
INSERT
  8
29
  2
LONGP100
 10
166.1900
 20
146.0000
 30
0.0000
 41
1.6256
 42
1.6256
 43
1.0000
 50
90.0000
  0
INSERT
  8
29
  2
LONGP100
 10
168.7300
 20
146.0000
 30
0.0000
 41
1.6256
 42
1.6256
 43
1.0000
 50
90.0000
  0
INSERT
  8
29
  2
LONGP100
 10
171.2700
 20
146.0000
 30
0.0000
 41
1.6256
 42
1.6256
 43
1.0000
 50
90.0000
  0
INSERT
  8
29
  2
LONGP100
 10
173.8100
 20
146.0000
 30
0.0000
 41
1.6256
 42
1.6256
 43
1.0000
 50
90.0000
  0
INSERT
  8
29
  2
RECT
 10
116.1900
 20
96.9266
 30
0.0000
 41
0.8636
 42
2.2352
 43
1.0000
 50
0.0000
  0
INSERT
  8
29
  2
RECT
 10
117.4600
 20
96.9266
 30
0.0000
 41
0.8636
 42
2.2352
 43
1.0000
 50
0.0000
  0
INSERT
  8
29
  2
RECT
 10
118.7300
 20
96.9266
 30
0.0000
 41
0.8636
 42
2.2352
 43
1.0000
 50
0.0000
  0
INSERT
  8
29
  2
RECT
 10
120.0000
 20
96.9266
 30
0.0000
 41
0.8636
 42
2.2352
 43
1.0000
 50
0.0000
  0
INSERT
  8
29
  2
RECT
 10
121.2700
 20
96.9266
 30
0.0000
 41
0.8636
 42
2.2352
 43
1.0000
 50
0.0000
  0
INSERT
  8
29
  2
RECT
 10
122.5400
 20
96.9266
 30
0.0000
 41
0.8636
 42
2.2352
 43
1.0000
 50
0.0000
  0
INSERT
  8
29
  2
RECT
 10
123.8100
 20
96.9266
 30
0.0000
 41
0.8636
 42
2.2352
 43
1.0000
 50
0.0000
  0
INSERT
  8
29
  2
RECT
 10
123.8100
 20
103.0734
 30
0.0000
 41
0.8636
 42
2.2352
 43
1.0000
 50
0.0000
  0
INSERT
  8
29
  2
RECT
 10
122.5400
 20
103.0734
 30
0.0000
 41
0.8636
 42
2.2352
 43
1.0000
 50
0.0000
  0
INSERT
  8
29
  2
RECT
 10
121.2700
 20
103.0734
 30
0.0000
 41
0.8636
 42
2.2352
 43
1.0000
 50
0.0000
  0
INSERT
  8
29
  2
RECT
 10
120.0000
 20
103.0734
 30
0.0000
 41
0.8636
 42
2.2352
 43
1.0000
 50
0.0000
  0
INSERT
  8
29
  2
RECT
 10
118.7300
 20
103.0734
 30
0.0000
 41
0.8636
 42
2.2352
 43
1.0000
 50
0.0000
  0
INSERT
  8
29
  2
RECT
 10
117.4600
 20
103.0734
 30
0.0000
 41
0.8636
 42
2.2352
 43
1.0000
 50
0.0000
  0
INSERT
  8
29
  2
RECT
 10
116.1900
 20
103.0734
 30
0.0000
 41
0.8636
 42
2.2352
 43
1.0000
 50
0.0000
  0
INSERT
  8
29
  2
RECT
 10
116.1900
 20
76.9266
 30
0.0000
 41
0.8636
 42
2.2352
 43
1.0000
 50
0.0000
  0
INSERT
  8
29
  2
RECT
 10
117.4600
 20
76.9266
 30
0.0000
 41
0.8636
 42
2.2352
 43
1.0000
 50
0.0000
  0
INSERT
  8
29
  2
RECT
 10
118.7300
 20
76.9266
 30
0.0000
 41
0.8636
 42
2.2352
 43
1.0000
 50
0.0000
  0
INSERT
  8
29
  2
RECT
 10
120.0000
 20
76.9266
 30
0.0000
 41
0.8636
 42
2.2352
 43
1.0000
 50
0.0000
  0
INSERT
  8
29
  2
RECT
 10
121.2700
 20
76.9266
 30
0.0000
 41
0.8636
 42
2.2352
 43
1.0000
 50
0.0000
  0
INSERT
  8
29
  2
RECT
 10
122.5400
 20
76.9266
 30
0.0000
 41
0.8636
 42
2.2352
 43
1.0000
 50
0.0000
  0
INSERT
  8
29
  2
RECT
 10
123.8100
 20
76.9266
 30
0.0000
 41
0.8636
 42
2.2352
 43
1.0000
 50
0.0000
  0
INSERT
  8
29
  2
RECT
 10
123.8100
 20
83.0734
 30
0.0000
 41
0.8636
 42
2.2352
 43
1.0000
 50
0.0000
  0
INSERT
  8
29
  2
RECT
 10
122.5400
 20
83.0734
 30
0.0000
 41
0.8636
 42
2.2352
 43
1.0000
 50
0.0000
  0
INSERT
  8
29
  2
RECT
 10
121.2700
 20
83.0734
 30
0.0000
 41
0.8636
 42
2.2352
 43
1.0000
 50
0.0000
  0
INSERT
  8
29
  2
RECT
 10
120.0000
 20
83.0734
 30
0.0000
 41
0.8636
 42
2.2352
 43
1.0000
 50
0.0000
  0
INSERT
  8
29
  2
RECT
 10
118.7300
 20
83.0734
 30
0.0000
 41
0.8636
 42
2.2352
 43
1.0000
 50
0.0000
  0
INSERT
  8
29
  2
RECT
 10
117.4600
 20
83.0734
 30
0.0000
 41
0.8636
 42
2.2352
 43
1.0000
 50
0.0000
  0
INSERT
  8
29
  2
RECT
 10
116.1900
 20
83.0734
 30
0.0000
 41
0.8636
 42
2.2352
 43
1.0000
 50
0.0000
  0
INSERT
  8
29
  2
RECT
 10
116.1900
 20
56.9266
 30
0.0000
 41
0.8636
 42
2.2352
 43
1.0000
 50
0.0000
  0
INSERT
  8
29
  2
RECT
 10
117.4600
 20
56.9266
 30
0.0000
 41
0.8636
 42
2.2352
 43
1.0000
 50
0.0000
  0
INSERT
  8
29
  2
RECT
 10
118.7300
 20
56.9266
 30
0.0000
 41
0.8636
 42
2.2352
 43
1.0000
 50
0.0000
  0
INSERT
  8
29
  2
RECT
 10
120.0000
 20
56.9266
 30
0.0000
 41
0.8636
 42
2.2352
 43
1.0000
 50
0.0000
  0
INSERT
  8
29
  2
RECT
 10
121.2700
 20
56.9266
 30
0.0000
 41
0.8636
 42
2.2352
 43
1.0000
 50
0.0000
  0
INSERT
  8
29
  2
RECT
 10
122.5400
 20
56.9266
 30
0.0000
 41
0.8636
 42
2.2352
 43
1.0000
 50
0.0000
  0
INSERT
  8
29
  2
RECT
 10
123.8100
 20
56.9266
 30
0.0000
 41
0.8636
 42
2.2352
 43
1.0000
 50
0.0000
  0
INSERT
  8
29
  2
RECT
 10
123.8100
 20
63.0734
 30
0.0000
 41
0.8636
 42
2.2352
 43
1.0000
 50
0.0000
  0
INSERT
  8
29
  2
RECT
 10
122.5400
 20
63.0734
 30
0.0000
 41
0.8636
 42
2.2352
 43
1.0000
 50
0.0000
  0
INSERT
  8
29
  2
RECT
 10
121.2700
 20
63.0734
 30
0.0000
 41
0.8636
 42
2.2352
 43
1.0000
 50
0.0000
  0
INSERT
  8
29
  2
RECT
 10
120.0000
 20
63.0734
 30
0.0000
 41
0.8636
 42
2.2352
 43
1.0000
 50
0.0000
  0
INSERT
  8
29
  2
RECT
 10
118.7300
 20
63.0734
 30
0.0000
 41
0.8636
 42
2.2352
 43
1.0000
 50
0.0000
  0
INSERT
  8
29
  2
RECT
 10
117.4600
 20
63.0734
 30
0.0000
 41
0.8636
 42
2.2352
 43
1.0000
 50
0.0000
  0
INSERT
  8
29
  2
RECT
 10
116.1900
 20
63.0734
 30
0.0000
 41
0.8636
 42
2.2352
 43
1.0000
 50
0.0000
  0
INSERT
  8
29
  2
RECT
 10
116.1900
 20
36.9266
 30
0.0000
 41
0.8636
 42
2.2352
 43
1.0000
 50
0.0000
  0
INSERT
  8
29
  2
RECT
 10
117.4600
 20
36.9266
 30
0.0000
 41
0.8636
 42
2.2352
 43
1.0000
 50
0.0000
  0
INSERT
  8
29
  2
RECT
 10
118.7300
 20
36.9266
 30
0.0000
 41
0.8636
 42
2.2352
 43
1.0000
 50
0.0000
  0
INSERT
  8
29
  2
RECT
 10
120.0000
 20
36.9266
 30
0.0000
 41
0.8636
 42
2.2352
 43
1.0000
 50
0.0000
  0
INSERT
  8
29
  2
RECT
 10
121.2700
 20
36.9266
 30
0.0000
 41
0.8636
 42
2.2352
 43
1.0000
 50
0.0000
  0
INSERT
  8
29
  2
RECT
 10
122.5400
 20
36.9266
 30
0.0000
 41
0.8636
 42
2.2352
 43
1.0000
 50
0.0000
  0
INSERT
  8
29
  2
RECT
 10
123.8100
 20
36.9266
 30
0.0000
 41
0.8636
 42
2.2352
 43
1.0000
 50
0.0000
  0
INSERT
  8
29
  2
RECT
 10
123.8100
 20
43.0734
 30
0.0000
 41
0.8636
 42
2.2352
 43
1.0000
 50
0.0000
  0
INSERT
  8
29
  2
RECT
 10
122.5400
 20
43.0734
 30
0.0000
 41
0.8636
 42
2.2352
 43
1.0000
 50
0.0000
  0
INSERT
  8
29
  2
RECT
 10
121.2700
 20
43.0734
 30
0.0000
 41
0.8636
 42
2.2352
 43
1.0000
 50
0.0000
  0
INSERT
  8
29
  2
RECT
 10
120.0000
 20
43.0734
 30
0.0000
 41
0.8636
 42
2.2352
 43
1.0000
 50
0.0000
  0
INSERT
  8
29
  2
RECT
 10
118.7300
 20
43.0734
 30
0.0000
 41
0.8636
 42
2.2352
 43
1.0000
 50
0.0000
  0
INSERT
  8
29
  2
RECT
 10
117.4600
 20
43.0734
 30
0.0000
 41
0.8636
 42
2.2352
 43
1.0000
 50
0.0000
  0
INSERT
  8
29
  2
RECT
 10
116.1900
 20
43.0734
 30
0.0000
 41
0.8636
 42
2.2352
 43
1.0000
 50
0.0000
  0
INSERT
  8
29
  2
RECT
 10
114.2850
 20
114.9708
 30
0.0000
 41
0.8636
 42
2.2352
 43
1.0000
 50
0.0000
  0
INSERT
  8
29
  2
RECT
 10
115.5550
 20
114.9708
 30
0.0000
 41
0.8636
 42
2.2352
 43
1.0000
 50
0.0000
  0
INSERT
  8
29
  2
RECT
 10
116.8250
 20
114.9708
 30
0.0000
 41
0.8636
 42
2.2352
 43
1.0000
 50
0.0000
  0
INSERT
  8
29
  2
RECT
 10
118.0950
 20
114.9708
 30
0.0000
 41
0.8636
 42
2.2352
 43
1.0000
 50
0.0000
  0
INSERT
  8
29
  2
RECT
 10
119.3650
 20
114.9708
 30
0.0000
 41
0.8636
 42
2.2352
 43
1.0000
 50
0.0000
  0
INSERT
  8
29
  2
RECT
 10
120.6350
 20
114.9708
 30
0.0000
 41
0.8636
 42
2.2352
 43
1.0000
 50
0.0000
  0
INSERT
  8
29
  2
RECT
 10
121.9050
 20
114.9708
 30
0.0000
 41
0.8636
 42
2.2352
 43
1.0000
 50
0.0000
  0
INSERT
  8
29
  2
RECT
 10
123.1750
 20
114.9708
 30
0.0000
 41
0.8636
 42
2.2352
 43
1.0000
 50
0.0000
  0
INSERT
  8
29
  2
RECT
 10
124.4450
 20
114.9708
 30
0.0000
 41
0.8636
 42
2.2352
 43
1.0000
 50
0.0000
  0
INSERT
  8
29
  2
RECT
 10
125.7150
 20
114.9708
 30
0.0000
 41
0.8636
 42
2.2352
 43
1.0000
 50
0.0000
  0
INSERT
  8
29
  2
RECT
 10
125.7150
 20
125.0292
 30
0.0000
 41
0.8636
 42
2.2352
 43
1.0000
 50
0.0000
  0
INSERT
  8
29
  2
RECT
 10
124.4450
 20
125.0292
 30
0.0000
 41
0.8636
 42
2.2352
 43
1.0000
 50
0.0000
  0
INSERT
  8
29
  2
RECT
 10
123.1750
 20
125.0292
 30
0.0000
 41
0.8636
 42
2.2352
 43
1.0000
 50
0.0000
  0
INSERT
  8
29
  2
RECT
 10
121.9050
 20
125.0292
 30
0.0000
 41
0.8636
 42
2.2352
 43
1.0000
 50
0.0000
  0
INSERT
  8
29
  2
RECT
 10
120.6350
 20
125.0292
 30
0.0000
 41
0.8636
 42
2.2352
 43
1.0000
 50
0.0000
  0
INSERT
  8
29
  2
RECT
 10
119.3650
 20
125.0292
 30
0.0000
 41
0.8636
 42
2.2352
 43
1.0000
 50
0.0000
  0
INSERT
  8
29
  2
RECT
 10
118.0950
 20
125.0292
 30
0.0000
 41
0.8636
 42
2.2352
 43
1.0000
 50
0.0000
  0
INSERT
  8
29
  2
RECT
 10
116.8250
 20
125.0292
 30
0.0000
 41
0.8636
 42
2.2352
 43
1.0000
 50
0.0000
  0
INSERT
  8
29
  2
RECT
 10
115.5550
 20
125.0292
 30
0.0000
 41
0.8636
 42
2.2352
 43
1.0000
 50
0.0000
  0
INSERT
  8
29
  2
RECT
 10
114.2850
 20
125.0292
 30
0.0000
 41
0.8636
 42
2.2352
 43
1.0000
 50
0.0000
  0
INSERT
  8
29
  2
OCTAGONP
 10
51.1100
 20
144.7300
 30
0.0000
 41
1.6256
 42
1.6256
 43
1.0000
 50
0.0000
  0
INSERT
  8
29
  2
OCTAGONP
 10
51.1100
 20
147.2700
 30
0.0000
 41
1.6256
 42
1.6256
 43
1.0000
 50
0.0000
  0
INSERT
  8
29
  2
OCTAGONP
 10
53.6500
 20
144.7300
 30
0.0000
 41
1.6256
 42
1.6256
 43
1.0000
 50
0.0000
  0
INSERT
  8
29
  2
OCTAGONP
 10
53.6500
 20
147.2700
 30
0.0000
 41
1.6256
 42
1.6256
 43
1.0000
 50
0.0000
  0
INSERT
  8
29
  2
OCTAGONP
 10
56.1900
 20
144.7300
 30
0.0000
 41
1.6256
 42
1.6256
 43
1.0000
 50
0.0000
  0
INSERT
  8
29
  2
OCTAGONP
 10
56.1900
 20
147.2700
 30
0.0000
 41
1.6256
 42
1.6256
 43
1.0000
 50
0.0000
  0
INSERT
  8
29
  2
OCTAGONP
 10
58.7300
 20
144.7300
 30
0.0000
 41
1.6256
 42
1.6256
 43
1.0000
 50
0.0000
  0
INSERT
  8
29
  2
OCTAGONP
 10
58.7300
 20
147.2700
 30
0.0000
 41
1.6256
 42
1.6256
 43
1.0000
 50
0.0000
  0
INSERT
  8
29
  2
OCTAGONP
 10
61.2700
 20
144.7300
 30
0.0000
 41
1.6256
 42
1.6256
 43
1.0000
 50
0.0000
  0
INSERT
  8
29
  2
OCTAGONP
 10
61.2700
 20
147.2700
 30
0.0000
 41
1.6256
 42
1.6256
 43
1.0000
 50
0.0000
  0
INSERT
  8
29
  2
OCTAGONP
 10
63.8100
 20
144.7300
 30
0.0000
 41
1.6256
 42
1.6256
 43
1.0000
 50
0.0000
  0
INSERT
  8
29
  2
OCTAGONP
 10
63.8100
 20
147.2700
 30
0.0000
 41
1.6256
 42
1.6256
 43
1.0000
 50
0.0000
  0
INSERT
  8
29
  2
OCTAGONP
 10
66.3500
 20
144.7300
 30
0.0000
 41
1.6256
 42
1.6256
 43
1.0000
 50
0.0000
  0
INSERT
  8
29
  2
OCTAGONP
 10
66.3500
 20
147.2700
 30
0.0000
 41
1.6256
 42
1.6256
 43
1.0000
 50
0.0000
  0
INSERT
  8
29
  2
OCTAGONP
 10
68.8900
 20
144.7300
 30
0.0000
 41
1.6256
 42
1.6256
 43
1.0000
 50
0.0000
  0
INSERT
  8
29
  2
OCTAGONP
 10
68.8900
 20
147.2700
 30
0.0000
 41
1.6256
 42
1.6256
 43
1.0000
 50
0.0000
  0
INSERT
  8
29
  2
RECT
 10
14.6000
 20
9.0000
 30
0.0000
 41
1.8032
 42
2.0032
 43
1.0000
 50
0.0000
  0
INSERT
  8
29
  2
RECT
 10
17.4000
 20
9.0000
 30
0.0000
 41
1.8032
 42
2.0032
 43
1.0000
 50
0.0000
  0
INSERT
  8
29
  2
RECT
 10
196.0000
 20
10.6000
 30
0.0000
 41
1.8032
 42
2.0032
 43
1.0000
 50
90.0000
  0
INSERT
  8
29
  2
RECT
 10
196.0000
 20
13.4000
 30
0.0000
 41
1.8032
 42
2.0032
 43
1.0000
 50
90.0000
  0
INSERT
  8
29
  2
RECT
 10
192.0000
 20
134.6000
 30
0.0000
 41
1.8032
 42
2.0032
 43
1.0000
 50
90.0000
  0
INSERT
  8
29
  2
RECT
 10
192.0000
 20
137.4000
 30
0.0000
 41
1.8032
 42
2.0032
 43
1.0000
 50
90.0000
  0
INSERT
  8
29
  2
RECT
 10
56.1900
 20
96.9266
 30
0.0000
 41
0.8636
 42
2.2352
 43
1.0000
 50
0.0000
  0
INSERT
  8
29
  2
RECT
 10
57.4600
 20
96.9266
 30
0.0000
 41
0.8636
 42
2.2352
 43
1.0000
 50
0.0000
  0
INSERT
  8
29
  2
RECT
 10
58.7300
 20
96.9266
 30
0.0000
 41
0.8636
 42
2.2352
 43
1.0000
 50
0.0000
  0
INSERT
  8
29
  2
RECT
 10
60.0000
 20
96.9266
 30
0.0000
 41
0.8636
 42
2.2352
 43
1.0000
 50
0.0000
  0
INSERT
  8
29
  2
RECT
 10
61.2700
 20
96.9266
 30
0.0000
 41
0.8636
 42
2.2352
 43
1.0000
 50
0.0000
  0
INSERT
  8
29
  2
RECT
 10
62.5400
 20
96.9266
 30
0.0000
 41
0.8636
 42
2.2352
 43
1.0000
 50
0.0000
  0
INSERT
  8
29
  2
RECT
 10
63.8100
 20
96.9266
 30
0.0000
 41
0.8636
 42
2.2352
 43
1.0000
 50
0.0000
  0
INSERT
  8
29
  2
RECT
 10
63.8100
 20
103.0734
 30
0.0000
 41
0.8636
 42
2.2352
 43
1.0000
 50
0.0000
  0
INSERT
  8
29
  2
RECT
 10
62.5400
 20
103.0734
 30
0.0000
 41
0.8636
 42
2.2352
 43
1.0000
 50
0.0000
  0
INSERT
  8
29
  2
RECT
 10
61.2700
 20
103.0734
 30
0.0000
 41
0.8636
 42
2.2352
 43
1.0000
 50
0.0000
  0
INSERT
  8
29
  2
RECT
 10
60.0000
 20
103.0734
 30
0.0000
 41
0.8636
 42
2.2352
 43
1.0000
 50
0.0000
  0
INSERT
  8
29
  2
RECT
 10
58.7300
 20
103.0734
 30
0.0000
 41
0.8636
 42
2.2352
 43
1.0000
 50
0.0000
  0
INSERT
  8
29
  2
RECT
 10
57.4600
 20
103.0734
 30
0.0000
 41
0.8636
 42
2.2352
 43
1.0000
 50
0.0000
  0
INSERT
  8
29
  2
RECT
 10
56.1900
 20
103.0734
 30
0.0000
 41
0.8636
 42
2.2352
 43
1.0000
 50
0.0000
  0
INSERT
  8
29
  2
RECT
 10
56.1900
 20
76.9266
 30
0.0000
 41
0.8636
 42
2.2352
 43
1.0000
 50
0.0000
  0
INSERT
  8
29
  2
RECT
 10
57.4600
 20
76.9266
 30
0.0000
 41
0.8636
 42
2.2352
 43
1.0000
 50
0.0000
  0
INSERT
  8
29
  2
RECT
 10
58.7300
 20
76.9266
 30
0.0000
 41
0.8636
 42
2.2352
 43
1.0000
 50
0.0000
  0
INSERT
  8
29
  2
RECT
 10
60.0000
 20
76.9266
 30
0.0000
 41
0.8636
 42
2.2352
 43
1.0000
 50
0.0000
  0
INSERT
  8
29
  2
RECT
 10
61.2700
 20
76.9266
 30
0.0000
 41
0.8636
 42
2.2352
 43
1.0000
 50
0.0000
  0
INSERT
  8
29
  2
RECT
 10
62.5400
 20
76.9266
 30
0.0000
 41
0.8636
 42
2.2352
 43
1.0000
 50
0.0000
  0
INSERT
  8
29
  2
RECT
 10
63.8100
 20
76.9266
 30
0.0000
 41
0.8636
 42
2.2352
 43
1.0000
 50
0.0000
  0
INSERT
  8
29
  2
RECT
 10
63.8100
 20
83.0734
 30
0.0000
 41
0.8636
 42
2.2352
 43
1.0000
 50
0.0000
  0
INSERT
  8
29
  2
RECT
 10
62.5400
 20
83.0734
 30
0.0000
 41
0.8636
 42
2.2352
 43
1.0000
 50
0.0000
  0
INSERT
  8
29
  2
RECT
 10
61.2700
 20
83.0734
 30
0.0000
 41
0.8636
 42
2.2352
 43
1.0000
 50
0.0000
  0
INSERT
  8
29
  2
RECT
 10
60.0000
 20
83.0734
 30
0.0000
 41
0.8636
 42
2.2352
 43
1.0000
 50
0.0000
  0
INSERT
  8
29
  2
RECT
 10
58.7300
 20
83.0734
 30
0.0000
 41
0.8636
 42
2.2352
 43
1.0000
 50
0.0000
  0
INSERT
  8
29
  2
RECT
 10
57.4600
 20
83.0734
 30
0.0000
 41
0.8636
 42
2.2352
 43
1.0000
 50
0.0000
  0
INSERT
  8
29
  2
RECT
 10
56.1900
 20
83.0734
 30
0.0000
 41
0.8636
 42
2.2352
 43
1.0000
 50
0.0000
  0
INSERT
  8
29
  2
RECT
 10
56.1900
 20
56.9266
 30
0.0000
 41
0.8636
 42
2.2352
 43
1.0000
 50
0.0000
  0
INSERT
  8
29
  2
RECT
 10
57.4600
 20
56.9266
 30
0.0000
 41
0.8636
 42
2.2352
 43
1.0000
 50
0.0000
  0
INSERT
  8
29
  2
RECT
 10
58.7300
 20
56.9266
 30
0.0000
 41
0.8636
 42
2.2352
 43
1.0000
 50
0.0000
  0
INSERT
  8
29
  2
RECT
 10
60.0000
 20
56.9266
 30
0.0000
 41
0.8636
 42
2.2352
 43
1.0000
 50
0.0000
  0
INSERT
  8
29
  2
RECT
 10
61.2700
 20
56.9266
 30
0.0000
 41
0.8636
 42
2.2352
 43
1.0000
 50
0.0000
  0
INSERT
  8
29
  2
RECT
 10
62.5400
 20
56.9266
 30
0.0000
 41
0.8636
 42
2.2352
 43
1.0000
 50
0.0000
  0
INSERT
  8
29
  2
RECT
 10
63.8100
 20
56.9266
 30
0.0000
 41
0.8636
 42
2.2352
 43
1.0000
 50
0.0000
  0
INSERT
  8
29
  2
RECT
 10
63.8100
 20
63.0734
 30
0.0000
 41
0.8636
 42
2.2352
 43
1.0000
 50
0.0000
  0
INSERT
  8
29
  2
RECT
 10
62.5400
 20
63.0734
 30
0.0000
 41
0.8636
 42
2.2352
 43
1.0000
 50
0.0000
  0
INSERT
  8
29
  2
RECT
 10
61.2700
 20
63.0734
 30
0.0000
 41
0.8636
 42
2.2352
 43
1.0000
 50
0.0000
  0
INSERT
  8
29
  2
RECT
 10
60.0000
 20
63.0734
 30
0.0000
 41
0.8636
 42
2.2352
 43
1.0000
 50
0.0000
  0
INSERT
  8
29
  2
RECT
 10
58.7300
 20
63.0734
 30
0.0000
 41
0.8636
 42
2.2352
 43
1.0000
 50
0.0000
  0
INSERT
  8
29
  2
RECT
 10
57.4600
 20
63.0734
 30
0.0000
 41
0.8636
 42
2.2352
 43
1.0000
 50
0.0000
  0
INSERT
  8
29
  2
RECT
 10
56.1900
 20
63.0734
 30
0.0000
 41
0.8636
 42
2.2352
 43
1.0000
 50
0.0000
  0
INSERT
  8
29
  2
RECT
 10
56.1900
 20
36.9266
 30
0.0000
 41
0.8636
 42
2.2352
 43
1.0000
 50
0.0000
  0
INSERT
  8
29
  2
RECT
 10
57.4600
 20
36.9266
 30
0.0000
 41
0.8636
 42
2.2352
 43
1.0000
 50
0.0000
  0
INSERT
  8
29
  2
RECT
 10
58.7300
 20
36.9266
 30
0.0000
 41
0.8636
 42
2.2352
 43
1.0000
 50
0.0000
  0
INSERT
  8
29
  2
RECT
 10
60.0000
 20
36.9266
 30
0.0000
 41
0.8636
 42
2.2352
 43
1.0000
 50
0.0000
  0
INSERT
  8
29
  2
RECT
 10
61.2700
 20
36.9266
 30
0.0000
 41
0.8636
 42
2.2352
 43
1.0000
 50
0.0000
  0
INSERT
  8
29
  2
RECT
 10
62.5400
 20
36.9266
 30
0.0000
 41
0.8636
 42
2.2352
 43
1.0000
 50
0.0000
  0
INSERT
  8
29
  2
RECT
 10
63.8100
 20
36.9266
 30
0.0000
 41
0.8636
 42
2.2352
 43
1.0000
 50
0.0000
  0
INSERT
  8
29
  2
RECT
 10
63.8100
 20
43.0734
 30
0.0000
 41
0.8636
 42
2.2352
 43
1.0000
 50
0.0000
  0
INSERT
  8
29
  2
RECT
 10
62.5400
 20
43.0734
 30
0.0000
 41
0.8636
 42
2.2352
 43
1.0000
 50
0.0000
  0
INSERT
  8
29
  2
RECT
 10
61.2700
 20
43.0734
 30
0.0000
 41
0.8636
 42
2.2352
 43
1.0000
 50
0.0000
  0
INSERT
  8
29
  2
RECT
 10
60.0000
 20
43.0734
 30
0.0000
 41
0.8636
 42
2.2352
 43
1.0000
 50
0.0000
  0
INSERT
  8
29
  2
RECT
 10
58.7300
 20
43.0734
 30
0.0000
 41
0.8636
 42
2.2352
 43
1.0000
 50
0.0000
  0
INSERT
  8
29
  2
RECT
 10
57.4600
 20
43.0734
 30
0.0000
 41
0.8636
 42
2.2352
 43
1.0000
 50
0.0000
  0
INSERT
  8
29
  2
RECT
 10
56.1900
 20
43.0734
 30
0.0000
 41
0.8636
 42
2.2352
 43
1.0000
 50
0.0000
  0
INSERT
  8
29
  2
RECT
 10
54.2850
 20
114.9708
 30
0.0000
 41
0.8636
 42
2.2352
 43
1.0000
 50
0.0000
  0
INSERT
  8
29
  2
RECT
 10
55.5550
 20
114.9708
 30
0.0000
 41
0.8636
 42
2.2352
 43
1.0000
 50
0.0000
  0
INSERT
  8
29
  2
RECT
 10
56.8250
 20
114.9708
 30
0.0000
 41
0.8636
 42
2.2352
 43
1.0000
 50
0.0000
  0
INSERT
  8
29
  2
RECT
 10
58.0950
 20
114.9708
 30
0.0000
 41
0.8636
 42
2.2352
 43
1.0000
 50
0.0000
  0
INSERT
  8
29
  2
RECT
 10
59.3650
 20
114.9708
 30
0.0000
 41
0.8636
 42
2.2352
 43
1.0000
 50
0.0000
  0
INSERT
  8
29
  2
RECT
 10
60.6350
 20
114.9708
 30
0.0000
 41
0.8636
 42
2.2352
 43
1.0000
 50
0.0000
  0
INSERT
  8
29
  2
RECT
 10
61.9050
 20
114.9708
 30
0.0000
 41
0.8636
 42
2.2352
 43
1.0000
 50
0.0000
  0
INSERT
  8
29
  2
RECT
 10
63.1750
 20
114.9708
 30
0.0000
 41
0.8636
 42
2.2352
 43
1.0000
 50
0.0000
  0
INSERT
  8
29
  2
RECT
 10
64.4450
 20
114.9708
 30
0.0000
 41
0.8636
 42
2.2352
 43
1.0000
 50
0.0000
  0
INSERT
  8
29
  2
RECT
 10
65.7150
 20
114.9708
 30
0.0000
 41
0.8636
 42
2.2352
 43
1.0000
 50
0.0000
  0
INSERT
  8
29
  2
RECT
 10
65.7150
 20
125.0292
 30
0.0000
 41
0.8636
 42
2.2352
 43
1.0000
 50
0.0000
  0
INSERT
  8
29
  2
RECT
 10
64.4450
 20
125.0292
 30
0.0000
 41
0.8636
 42
2.2352
 43
1.0000
 50
0.0000
  0
INSERT
  8
29
  2
RECT
 10
63.1750
 20
125.0292
 30
0.0000
 41
0.8636
 42
2.2352
 43
1.0000
 50
0.0000
  0
INSERT
  8
29
  2
RECT
 10
61.9050
 20
125.0292
 30
0.0000
 41
0.8636
 42
2.2352
 43
1.0000
 50
0.0000
  0
INSERT
  8
29
  2
RECT
 10
60.6350
 20
125.0292
 30
0.0000
 41
0.8636
 42
2.2352
 43
1.0000
 50
0.0000
  0
INSERT
  8
29
  2
RECT
 10
59.3650
 20
125.0292
 30
0.0000
 41
0.8636
 42
2.2352
 43
1.0000
 50
0.0000
  0
INSERT
  8
29
  2
RECT
 10
58.0950
 20
125.0292
 30
0.0000
 41
0.8636
 42
2.2352
 43
1.0000
 50
0.0000
  0
INSERT
  8
29
  2
RECT
 10
56.8250
 20
125.0292
 30
0.0000
 41
0.8636
 42
2.2352
 43
1.0000
 50
0.0000
  0
INSERT
  8
29
  2
RECT
 10
55.5550
 20
125.0292
 30
0.0000
 41
0.8636
 42
2.2352
 43
1.0000
 50
0.0000
  0
INSERT
  8
29
  2
RECT
 10
54.2850
 20
125.0292
 30
0.0000
 41
0.8636
 42
2.2352
 43
1.0000
 50
0.0000
  0
INSERT
  8
29
  2
RECT
 10
86.1900
 20
96.9266
 30
0.0000
 41
0.8636
 42
2.2352
 43
1.0000
 50
0.0000
  0
INSERT
  8
29
  2
RECT
 10
87.4600
 20
96.9266
 30
0.0000
 41
0.8636
 42
2.2352
 43
1.0000
 50
0.0000
  0
INSERT
  8
29
  2
RECT
 10
88.7300
 20
96.9266
 30
0.0000
 41
0.8636
 42
2.2352
 43
1.0000
 50
0.0000
  0
INSERT
  8
29
  2
RECT
 10
90.0000
 20
96.9266
 30
0.0000
 41
0.8636
 42
2.2352
 43
1.0000
 50
0.0000
  0
INSERT
  8
29
  2
RECT
 10
91.2700
 20
96.9266
 30
0.0000
 41
0.8636
 42
2.2352
 43
1.0000
 50
0.0000
  0
INSERT
  8
29
  2
RECT
 10
92.5400
 20
96.9266
 30
0.0000
 41
0.8636
 42
2.2352
 43
1.0000
 50
0.0000
  0
INSERT
  8
29
  2
RECT
 10
93.8100
 20
96.9266
 30
0.0000
 41
0.8636
 42
2.2352
 43
1.0000
 50
0.0000
  0
INSERT
  8
29
  2
RECT
 10
93.8100
 20
103.0734
 30
0.0000
 41
0.8636
 42
2.2352
 43
1.0000
 50
0.0000
  0
INSERT
  8
29
  2
RECT
 10
92.5400
 20
103.0734
 30
0.0000
 41
0.8636
 42
2.2352
 43
1.0000
 50
0.0000
  0
INSERT
  8
29
  2
RECT
 10
91.2700
 20
103.0734
 30
0.0000
 41
0.8636
 42
2.2352
 43
1.0000
 50
0.0000
  0
INSERT
  8
29
  2
RECT
 10
90.0000
 20
103.0734
 30
0.0000
 41
0.8636
 42
2.2352
 43
1.0000
 50
0.0000
  0
INSERT
  8
29
  2
RECT
 10
88.7300
 20
103.0734
 30
0.0000
 41
0.8636
 42
2.2352
 43
1.0000
 50
0.0000
  0
INSERT
  8
29
  2
RECT
 10
87.4600
 20
103.0734
 30
0.0000
 41
0.8636
 42
2.2352
 43
1.0000
 50
0.0000
  0
INSERT
  8
29
  2
RECT
 10
86.1900
 20
103.0734
 30
0.0000
 41
0.8636
 42
2.2352
 43
1.0000
 50
0.0000
  0
INSERT
  8
29
  2
RECT
 10
86.1900
 20
76.9266
 30
0.0000
 41
0.8636
 42
2.2352
 43
1.0000
 50
0.0000
  0
INSERT
  8
29
  2
RECT
 10
87.4600
 20
76.9266
 30
0.0000
 41
0.8636
 42
2.2352
 43
1.0000
 50
0.0000
  0
INSERT
  8
29
  2
RECT
 10
88.7300
 20
76.9266
 30
0.0000
 41
0.8636
 42
2.2352
 43
1.0000
 50
0.0000
  0
INSERT
  8
29
  2
RECT
 10
90.0000
 20
76.9266
 30
0.0000
 41
0.8636
 42
2.2352
 43
1.0000
 50
0.0000
  0
INSERT
  8
29
  2
RECT
 10
91.2700
 20
76.9266
 30
0.0000
 41
0.8636
 42
2.2352
 43
1.0000
 50
0.0000
  0
INSERT
  8
29
  2
RECT
 10
92.5400
 20
76.9266
 30
0.0000
 41
0.8636
 42
2.2352
 43
1.0000
 50
0.0000
  0
INSERT
  8
29
  2
RECT
 10
93.8100
 20
76.9266
 30
0.0000
 41
0.8636
 42
2.2352
 43
1.0000
 50
0.0000
  0
INSERT
  8
29
  2
RECT
 10
93.8100
 20
83.0734
 30
0.0000
 41
0.8636
 42
2.2352
 43
1.0000
 50
0.0000
  0
INSERT
  8
29
  2
RECT
 10
92.5400
 20
83.0734
 30
0.0000
 41
0.8636
 42
2.2352
 43
1.0000
 50
0.0000
  0
INSERT
  8
29
  2
RECT
 10
91.2700
 20
83.0734
 30
0.0000
 41
0.8636
 42
2.2352
 43
1.0000
 50
0.0000
  0
INSERT
  8
29
  2
RECT
 10
90.0000
 20
83.0734
 30
0.0000
 41
0.8636
 42
2.2352
 43
1.0000
 50
0.0000
  0
INSERT
  8
29
  2
RECT
 10
88.7300
 20
83.0734
 30
0.0000
 41
0.8636
 42
2.2352
 43
1.0000
 50
0.0000
  0
INSERT
  8
29
  2
RECT
 10
87.4600
 20
83.0734
 30
0.0000
 41
0.8636
 42
2.2352
 43
1.0000
 50
0.0000
  0
INSERT
  8
29
  2
RECT
 10
86.1900
 20
83.0734
 30
0.0000
 41
0.8636
 42
2.2352
 43
1.0000
 50
0.0000
  0
INSERT
  8
29
  2
RECT
 10
86.1900
 20
56.9266
 30
0.0000
 41
0.8636
 42
2.2352
 43
1.0000
 50
0.0000
  0
INSERT
  8
29
  2
RECT
 10
87.4600
 20
56.9266
 30
0.0000
 41
0.8636
 42
2.2352
 43
1.0000
 50
0.0000
  0
INSERT
  8
29
  2
RECT
 10
88.7300
 20
56.9266
 30
0.0000
 41
0.8636
 42
2.2352
 43
1.0000
 50
0.0000
  0
INSERT
  8
29
  2
RECT
 10
90.0000
 20
56.9266
 30
0.0000
 41
0.8636
 42
2.2352
 43
1.0000
 50
0.0000
  0
INSERT
  8
29
  2
RECT
 10
91.2700
 20
56.9266
 30
0.0000
 41
0.8636
 42
2.2352
 43
1.0000
 50
0.0000
  0
INSERT
  8
29
  2
RECT
 10
92.5400
 20
56.9266
 30
0.0000
 41
0.8636
 42
2.2352
 43
1.0000
 50
0.0000
  0
INSERT
  8
29
  2
RECT
 10
93.8100
 20
56.9266
 30
0.0000
 41
0.8636
 42
2.2352
 43
1.0000
 50
0.0000
  0
INSERT
  8
29
  2
RECT
 10
93.8100
 20
63.0734
 30
0.0000
 41
0.8636
 42
2.2352
 43
1.0000
 50
0.0000
  0
INSERT
  8
29
  2
RECT
 10
92.5400
 20
63.0734
 30
0.0000
 41
0.8636
 42
2.2352
 43
1.0000
 50
0.0000
  0
INSERT
  8
29
  2
RECT
 10
91.2700
 20
63.0734
 30
0.0000
 41
0.8636
 42
2.2352
 43
1.0000
 50
0.0000
  0
INSERT
  8
29
  2
RECT
 10
90.0000
 20
63.0734
 30
0.0000
 41
0.8636
 42
2.2352
 43
1.0000
 50
0.0000
  0
INSERT
  8
29
  2
RECT
 10
88.7300
 20
63.0734
 30
0.0000
 41
0.8636
 42
2.2352
 43
1.0000
 50
0.0000
  0
INSERT
  8
29
  2
RECT
 10
87.4600
 20
63.0734
 30
0.0000
 41
0.8636
 42
2.2352
 43
1.0000
 50
0.0000
  0
INSERT
  8
29
  2
RECT
 10
86.1900
 20
63.0734
 30
0.0000
 41
0.8636
 42
2.2352
 43
1.0000
 50
0.0000
  0
INSERT
  8
29
  2
RECT
 10
86.1900
 20
36.9266
 30
0.0000
 41
0.8636
 42
2.2352
 43
1.0000
 50
0.0000
  0
INSERT
  8
29
  2
RECT
 10
87.4600
 20
36.9266
 30
0.0000
 41
0.8636
 42
2.2352
 43
1.0000
 50
0.0000
  0
INSERT
  8
29
  2
RECT
 10
88.7300
 20
36.9266
 30
0.0000
 41
0.8636
 42
2.2352
 43
1.0000
 50
0.0000
  0
INSERT
  8
29
  2
RECT
 10
90.0000
 20
36.9266
 30
0.0000
 41
0.8636
 42
2.2352
 43
1.0000
 50
0.0000
  0
INSERT
  8
29
  2
RECT
 10
91.2700
 20
36.9266
 30
0.0000
 41
0.8636
 42
2.2352
 43
1.0000
 50
0.0000
  0
INSERT
  8
29
  2
RECT
 10
92.5400
 20
36.9266
 30
0.0000
 41
0.8636
 42
2.2352
 43
1.0000
 50
0.0000
  0
INSERT
  8
29
  2
RECT
 10
93.8100
 20
36.9266
 30
0.0000
 41
0.8636
 42
2.2352
 43
1.0000
 50
0.0000
  0
INSERT
  8
29
  2
RECT
 10
93.8100
 20
43.0734
 30
0.0000
 41
0.8636
 42
2.2352
 43
1.0000
 50
0.0000
  0
INSERT
  8
29
  2
RECT
 10
92.5400
 20
43.0734
 30
0.0000
 41
0.8636
 42
2.2352
 43
1.0000
 50
0.0000
  0
INSERT
  8
29
  2
RECT
 10
91.2700
 20
43.0734
 30
0.0000
 41
0.8636
 42
2.2352
 43
1.0000
 50
0.0000
  0
INSERT
  8
29
  2
RECT
 10
90.0000
 20
43.0734
 30
0.0000
 41
0.8636
 42
2.2352
 43
1.0000
 50
0.0000
  0
INSERT
  8
29
  2
RECT
 10
88.7300
 20
43.0734
 30
0.0000
 41
0.8636
 42
2.2352
 43
1.0000
 50
0.0000
  0
INSERT
  8
29
  2
RECT
 10
87.4600
 20
43.0734
 30
0.0000
 41
0.8636
 42
2.2352
 43
1.0000
 50
0.0000
  0
INSERT
  8
29
  2
RECT
 10
86.1900
 20
43.0734
 30
0.0000
 41
0.8636
 42
2.2352
 43
1.0000
 50
0.0000
  0
INSERT
  8
29
  2
RECT
 10
84.2850
 20
114.9708
 30
0.0000
 41
0.8636
 42
2.2352
 43
1.0000
 50
0.0000
  0
INSERT
  8
29
  2
RECT
 10
85.5550
 20
114.9708
 30
0.0000
 41
0.8636
 42
2.2352
 43
1.0000
 50
0.0000
  0
INSERT
  8
29
  2
RECT
 10
86.8250
 20
114.9708
 30
0.0000
 41
0.8636
 42
2.2352
 43
1.0000
 50
0.0000
  0
INSERT
  8
29
  2
RECT
 10
88.0950
 20
114.9708
 30
0.0000
 41
0.8636
 42
2.2352
 43
1.0000
 50
0.0000
  0
INSERT
  8
29
  2
RECT
 10
89.3650
 20
114.9708
 30
0.0000
 41
0.8636
 42
2.2352
 43
1.0000
 50
0.0000
  0
INSERT
  8
29
  2
RECT
 10
90.6350
 20
114.9708
 30
0.0000
 41
0.8636
 42
2.2352
 43
1.0000
 50
0.0000
  0
INSERT
  8
29
  2
RECT
 10
91.9050
 20
114.9708
 30
0.0000
 41
0.8636
 42
2.2352
 43
1.0000
 50
0.0000
  0
INSERT
  8
29
  2
RECT
 10
93.1750
 20
114.9708
 30
0.0000
 41
0.8636
 42
2.2352
 43
1.0000
 50
0.0000
  0
INSERT
  8
29
  2
RECT
 10
94.4450
 20
114.9708
 30
0.0000
 41
0.8636
 42
2.2352
 43
1.0000
 50
0.0000
  0
INSERT
  8
29
  2
RECT
 10
95.7150
 20
114.9708
 30
0.0000
 41
0.8636
 42
2.2352
 43
1.0000
 50
0.0000
  0
INSERT
  8
29
  2
RECT
 10
95.7150
 20
125.0292
 30
0.0000
 41
0.8636
 42
2.2352
 43
1.0000
 50
0.0000
  0
INSERT
  8
29
  2
RECT
 10
94.4450
 20
125.0292
 30
0.0000
 41
0.8636
 42
2.2352
 43
1.0000
 50
0.0000
  0
INSERT
  8
29
  2
RECT
 10
93.1750
 20
125.0292
 30
0.0000
 41
0.8636
 42
2.2352
 43
1.0000
 50
0.0000
  0
INSERT
  8
29
  2
RECT
 10
91.9050
 20
125.0292
 30
0.0000
 41
0.8636
 42
2.2352
 43
1.0000
 50
0.0000
  0
INSERT
  8
29
  2
RECT
 10
90.6350
 20
125.0292
 30
0.0000
 41
0.8636
 42
2.2352
 43
1.0000
 50
0.0000
  0
INSERT
  8
29
  2
RECT
 10
89.3650
 20
125.0292
 30
0.0000
 41
0.8636
 42
2.2352
 43
1.0000
 50
0.0000
  0
INSERT
  8
29
  2
RECT
 10
88.0950
 20
125.0292
 30
0.0000
 41
0.8636
 42
2.2352
 43
1.0000
 50
0.0000
  0
INSERT
  8
29
  2
RECT
 10
86.8250
 20
125.0292
 30
0.0000
 41
0.8636
 42
2.2352
 43
1.0000
 50
0.0000
  0
INSERT
  8
29
  2
RECT
 10
85.5550
 20
125.0292
 30
0.0000
 41
0.8636
 42
2.2352
 43
1.0000
 50
0.0000
  0
INSERT
  8
29
  2
RECT
 10
84.2850
 20
125.0292
 30
0.0000
 41
0.8636
 42
2.2352
 43
1.0000
 50
0.0000
  0
INSERT
  8
29
  2
RECT
 10
26.1900
 20
96.9266
 30
0.0000
 41
0.8636
 42
2.2352
 43
1.0000
 50
0.0000
  0
INSERT
  8
29
  2
RECT
 10
27.4600
 20
96.9266
 30
0.0000
 41
0.8636
 42
2.2352
 43
1.0000
 50
0.0000
  0
INSERT
  8
29
  2
RECT
 10
28.7300
 20
96.9266
 30
0.0000
 41
0.8636
 42
2.2352
 43
1.0000
 50
0.0000
  0
INSERT
  8
29
  2
RECT
 10
30.0000
 20
96.9266
 30
0.0000
 41
0.8636
 42
2.2352
 43
1.0000
 50
0.0000
  0
INSERT
  8
29
  2
RECT
 10
31.2700
 20
96.9266
 30
0.0000
 41
0.8636
 42
2.2352
 43
1.0000
 50
0.0000
  0
INSERT
  8
29
  2
RECT
 10
32.5400
 20
96.9266
 30
0.0000
 41
0.8636
 42
2.2352
 43
1.0000
 50
0.0000
  0
INSERT
  8
29
  2
RECT
 10
33.8100
 20
96.9266
 30
0.0000
 41
0.8636
 42
2.2352
 43
1.0000
 50
0.0000
  0
INSERT
  8
29
  2
RECT
 10
33.8100
 20
103.0734
 30
0.0000
 41
0.8636
 42
2.2352
 43
1.0000
 50
0.0000
  0
INSERT
  8
29
  2
RECT
 10
32.5400
 20
103.0734
 30
0.0000
 41
0.8636
 42
2.2352
 43
1.0000
 50
0.0000
  0
INSERT
  8
29
  2
RECT
 10
31.2700
 20
103.0734
 30
0.0000
 41
0.8636
 42
2.2352
 43
1.0000
 50
0.0000
  0
INSERT
  8
29
  2
RECT
 10
30.0000
 20
103.0734
 30
0.0000
 41
0.8636
 42
2.2352
 43
1.0000
 50
0.0000
  0
INSERT
  8
29
  2
RECT
 10
28.7300
 20
103.0734
 30
0.0000
 41
0.8636
 42
2.2352
 43
1.0000
 50
0.0000
  0
INSERT
  8
29
  2
RECT
 10
27.4600
 20
103.0734
 30
0.0000
 41
0.8636
 42
2.2352
 43
1.0000
 50
0.0000
  0
INSERT
  8
29
  2
RECT
 10
26.1900
 20
103.0734
 30
0.0000
 41
0.8636
 42
2.2352
 43
1.0000
 50
0.0000
  0
INSERT
  8
29
  2
RECT
 10
26.1900
 20
76.9266
 30
0.0000
 41
0.8636
 42
2.2352
 43
1.0000
 50
0.0000
  0
INSERT
  8
29
  2
RECT
 10
27.4600
 20
76.9266
 30
0.0000
 41
0.8636
 42
2.2352
 43
1.0000
 50
0.0000
  0
INSERT
  8
29
  2
RECT
 10
28.7300
 20
76.9266
 30
0.0000
 41
0.8636
 42
2.2352
 43
1.0000
 50
0.0000
  0
INSERT
  8
29
  2
RECT
 10
30.0000
 20
76.9266
 30
0.0000
 41
0.8636
 42
2.2352
 43
1.0000
 50
0.0000
  0
INSERT
  8
29
  2
RECT
 10
31.2700
 20
76.9266
 30
0.0000
 41
0.8636
 42
2.2352
 43
1.0000
 50
0.0000
  0
INSERT
  8
29
  2
RECT
 10
32.5400
 20
76.9266
 30
0.0000
 41
0.8636
 42
2.2352
 43
1.0000
 50
0.0000
  0
INSERT
  8
29
  2
RECT
 10
33.8100
 20
76.9266
 30
0.0000
 41
0.8636
 42
2.2352
 43
1.0000
 50
0.0000
  0
INSERT
  8
29
  2
RECT
 10
33.8100
 20
83.0734
 30
0.0000
 41
0.8636
 42
2.2352
 43
1.0000
 50
0.0000
  0
INSERT
  8
29
  2
RECT
 10
32.5400
 20
83.0734
 30
0.0000
 41
0.8636
 42
2.2352
 43
1.0000
 50
0.0000
  0
INSERT
  8
29
  2
RECT
 10
31.2700
 20
83.0734
 30
0.0000
 41
0.8636
 42
2.2352
 43
1.0000
 50
0.0000
  0
INSERT
  8
29
  2
RECT
 10
30.0000
 20
83.0734
 30
0.0000
 41
0.8636
 42
2.2352
 43
1.0000
 50
0.0000
  0
INSERT
  8
29
  2
RECT
 10
28.7300
 20
83.0734
 30
0.0000
 41
0.8636
 42
2.2352
 43
1.0000
 50
0.0000
  0
INSERT
  8
29
  2
RECT
 10
27.4600
 20
83.0734
 30
0.0000
 41
0.8636
 42
2.2352
 43
1.0000
 50
0.0000
  0
INSERT
  8
29
  2
RECT
 10
26.1900
 20
83.0734
 30
0.0000
 41
0.8636
 42
2.2352
 43
1.0000
 50
0.0000
  0
INSERT
  8
29
  2
RECT
 10
26.1900
 20
56.9266
 30
0.0000
 41
0.8636
 42
2.2352
 43
1.0000
 50
0.0000
  0
INSERT
  8
29
  2
RECT
 10
27.4600
 20
56.9266
 30
0.0000
 41
0.8636
 42
2.2352
 43
1.0000
 50
0.0000
  0
INSERT
  8
29
  2
RECT
 10
28.7300
 20
56.9266
 30
0.0000
 41
0.8636
 42
2.2352
 43
1.0000
 50
0.0000
  0
INSERT
  8
29
  2
RECT
 10
30.0000
 20
56.9266
 30
0.0000
 41
0.8636
 42
2.2352
 43
1.0000
 50
0.0000
  0
INSERT
  8
29
  2
RECT
 10
31.2700
 20
56.9266
 30
0.0000
 41
0.8636
 42
2.2352
 43
1.0000
 50
0.0000
  0
INSERT
  8
29
  2
RECT
 10
32.5400
 20
56.9266
 30
0.0000
 41
0.8636
 42
2.2352
 43
1.0000
 50
0.0000
  0
INSERT
  8
29
  2
RECT
 10
33.8100
 20
56.9266
 30
0.0000
 41
0.8636
 42
2.2352
 43
1.0000
 50
0.0000
  0
INSERT
  8
29
  2
RECT
 10
33.8100
 20
63.0734
 30
0.0000
 41
0.8636
 42
2.2352
 43
1.0000
 50
0.0000
  0
INSERT
  8
29
  2
RECT
 10
32.5400
 20
63.0734
 30
0.0000
 41
0.8636
 42
2.2352
 43
1.0000
 50
0.0000
  0
INSERT
  8
29
  2
RECT
 10
31.2700
 20
63.0734
 30
0.0000
 41
0.8636
 42
2.2352
 43
1.0000
 50
0.0000
  0
INSERT
  8
29
  2
RECT
 10
30.0000
 20
63.0734
 30
0.0000
 41
0.8636
 42
2.2352
 43
1.0000
 50
0.0000
  0
INSERT
  8
29
  2
RECT
 10
28.7300
 20
63.0734
 30
0.0000
 41
0.8636
 42
2.2352
 43
1.0000
 50
0.0000
  0
INSERT
  8
29
  2
RECT
 10
27.4600
 20
63.0734
 30
0.0000
 41
0.8636
 42
2.2352
 43
1.0000
 50
0.0000
  0
INSERT
  8
29
  2
RECT
 10
26.1900
 20
63.0734
 30
0.0000
 41
0.8636
 42
2.2352
 43
1.0000
 50
0.0000
  0
INSERT
  8
29
  2
RECT
 10
24.2850
 20
114.9708
 30
0.0000
 41
0.8636
 42
2.2352
 43
1.0000
 50
0.0000
  0
INSERT
  8
29
  2
RECT
 10
25.5550
 20
114.9708
 30
0.0000
 41
0.8636
 42
2.2352
 43
1.0000
 50
0.0000
  0
INSERT
  8
29
  2
RECT
 10
26.8250
 20
114.9708
 30
0.0000
 41
0.8636
 42
2.2352
 43
1.0000
 50
0.0000
  0
INSERT
  8
29
  2
RECT
 10
28.0950
 20
114.9708
 30
0.0000
 41
0.8636
 42
2.2352
 43
1.0000
 50
0.0000
  0
INSERT
  8
29
  2
RECT
 10
29.3650
 20
114.9708
 30
0.0000
 41
0.8636
 42
2.2352
 43
1.0000
 50
0.0000
  0
INSERT
  8
29
  2
RECT
 10
30.6350
 20
114.9708
 30
0.0000
 41
0.8636
 42
2.2352
 43
1.0000
 50
0.0000
  0
INSERT
  8
29
  2
RECT
 10
31.9050
 20
114.9708
 30
0.0000
 41
0.8636
 42
2.2352
 43
1.0000
 50
0.0000
  0
INSERT
  8
29
  2
RECT
 10
33.1750
 20
114.9708
 30
0.0000
 41
0.8636
 42
2.2352
 43
1.0000
 50
0.0000
  0
INSERT
  8
29
  2
RECT
 10
34.4450
 20
114.9708
 30
0.0000
 41
0.8636
 42
2.2352
 43
1.0000
 50
0.0000
  0
INSERT
  8
29
  2
RECT
 10
35.7150
 20
114.9708
 30
0.0000
 41
0.8636
 42
2.2352
 43
1.0000
 50
0.0000
  0
INSERT
  8
29
  2
RECT
 10
35.7150
 20
125.0292
 30
0.0000
 41
0.8636
 42
2.2352
 43
1.0000
 50
0.0000
  0
INSERT
  8
29
  2
RECT
 10
34.4450
 20
125.0292
 30
0.0000
 41
0.8636
 42
2.2352
 43
1.0000
 50
0.0000
  0
INSERT
  8
29
  2
RECT
 10
33.1750
 20
125.0292
 30
0.0000
 41
0.8636
 42
2.2352
 43
1.0000
 50
0.0000
  0
INSERT
  8
29
  2
RECT
 10
31.9050
 20
125.0292
 30
0.0000
 41
0.8636
 42
2.2352
 43
1.0000
 50
0.0000
  0
INSERT
  8
29
  2
RECT
 10
30.6350
 20
125.0292
 30
0.0000
 41
0.8636
 42
2.2352
 43
1.0000
 50
0.0000
  0
INSERT
  8
29
  2
RECT
 10
29.3650
 20
125.0292
 30
0.0000
 41
0.8636
 42
2.2352
 43
1.0000
 50
0.0000
  0
INSERT
  8
29
  2
RECT
 10
28.0950
 20
125.0292
 30
0.0000
 41
0.8636
 42
2.2352
 43
1.0000
 50
0.0000
  0
INSERT
  8
29
  2
RECT
 10
26.8250
 20
125.0292
 30
0.0000
 41
0.8636
 42
2.2352
 43
1.0000
 50
0.0000
  0
INSERT
  8
29
  2
RECT
 10
25.5550
 20
125.0292
 30
0.0000
 41
0.8636
 42
2.2352
 43
1.0000
 50
0.0000
  0
INSERT
  8
29
  2
RECT
 10
24.2850
 20
125.0292
 30
0.0000
 41
0.8636
 42
2.2352
 43
1.0000
 50
0.0000
  0
INSERT
  8
29
  2
RECT
 10
146.1900
 20
96.9266
 30
0.0000
 41
0.8636
 42
2.2352
 43
1.0000
 50
0.0000
  0
INSERT
  8
29
  2
RECT
 10
147.4600
 20
96.9266
 30
0.0000
 41
0.8636
 42
2.2352
 43
1.0000
 50
0.0000
  0
INSERT
  8
29
  2
RECT
 10
148.7300
 20
96.9266
 30
0.0000
 41
0.8636
 42
2.2352
 43
1.0000
 50
0.0000
  0
INSERT
  8
29
  2
RECT
 10
150.0000
 20
96.9266
 30
0.0000
 41
0.8636
 42
2.2352
 43
1.0000
 50
0.0000
  0
INSERT
  8
29
  2
RECT
 10
151.2700
 20
96.9266
 30
0.0000
 41
0.8636
 42
2.2352
 43
1.0000
 50
0.0000
  0
INSERT
  8
29
  2
RECT
 10
152.5400
 20
96.9266
 30
0.0000
 41
0.8636
 42
2.2352
 43
1.0000
 50
0.0000
  0
INSERT
  8
29
  2
RECT
 10
153.8100
 20
96.9266
 30
0.0000
 41
0.8636
 42
2.2352
 43
1.0000
 50
0.0000
  0
INSERT
  8
29
  2
RECT
 10
153.8100
 20
103.0734
 30
0.0000
 41
0.8636
 42
2.2352
 43
1.0000
 50
0.0000
  0
INSERT
  8
29
  2
RECT
 10
152.5400
 20
103.0734
 30
0.0000
 41
0.8636
 42
2.2352
 43
1.0000
 50
0.0000
  0
INSERT
  8
29
  2
RECT
 10
151.2700
 20
103.0734
 30
0.0000
 41
0.8636
 42
2.2352
 43
1.0000
 50
0.0000
  0
INSERT
  8
29
  2
RECT
 10
150.0000
 20
103.0734
 30
0.0000
 41
0.8636
 42
2.2352
 43
1.0000
 50
0.0000
  0
INSERT
  8
29
  2
RECT
 10
148.7300
 20
103.0734
 30
0.0000
 41
0.8636
 42
2.2352
 43
1.0000
 50
0.0000
  0
INSERT
  8
29
  2
RECT
 10
147.4600
 20
103.0734
 30
0.0000
 41
0.8636
 42
2.2352
 43
1.0000
 50
0.0000
  0
INSERT
  8
29
  2
RECT
 10
146.1900
 20
103.0734
 30
0.0000
 41
0.8636
 42
2.2352
 43
1.0000
 50
0.0000
  0
INSERT
  8
29
  2
RECT
 10
146.1900
 20
76.9266
 30
0.0000
 41
0.8636
 42
2.2352
 43
1.0000
 50
0.0000
  0
INSERT
  8
29
  2
RECT
 10
147.4600
 20
76.9266
 30
0.0000
 41
0.8636
 42
2.2352
 43
1.0000
 50
0.0000
  0
INSERT
  8
29
  2
RECT
 10
148.7300
 20
76.9266
 30
0.0000
 41
0.8636
 42
2.2352
 43
1.0000
 50
0.0000
  0
INSERT
  8
29
  2
RECT
 10
150.0000
 20
76.9266
 30
0.0000
 41
0.8636
 42
2.2352
 43
1.0000
 50
0.0000
  0
INSERT
  8
29
  2
RECT
 10
151.2700
 20
76.9266
 30
0.0000
 41
0.8636
 42
2.2352
 43
1.0000
 50
0.0000
  0
INSERT
  8
29
  2
RECT
 10
152.5400
 20
76.9266
 30
0.0000
 41
0.8636
 42
2.2352
 43
1.0000
 50
0.0000
  0
INSERT
  8
29
  2
RECT
 10
153.8100
 20
76.9266
 30
0.0000
 41
0.8636
 42
2.2352
 43
1.0000
 50
0.0000
  0
INSERT
  8
29
  2
RECT
 10
153.8100
 20
83.0734
 30
0.0000
 41
0.8636
 42
2.2352
 43
1.0000
 50
0.0000
  0
INSERT
  8
29
  2
RECT
 10
152.5400
 20
83.0734
 30
0.0000
 41
0.8636
 42
2.2352
 43
1.0000
 50
0.0000
  0
INSERT
  8
29
  2
RECT
 10
151.2700
 20
83.0734
 30
0.0000
 41
0.8636
 42
2.2352
 43
1.0000
 50
0.0000
  0
INSERT
  8
29
  2
RECT
 10
150.0000
 20
83.0734
 30
0.0000
 41
0.8636
 42
2.2352
 43
1.0000
 50
0.0000
  0
INSERT
  8
29
  2
RECT
 10
148.7300
 20
83.0734
 30
0.0000
 41
0.8636
 42
2.2352
 43
1.0000
 50
0.0000
  0
INSERT
  8
29
  2
RECT
 10
147.4600
 20
83.0734
 30
0.0000
 41
0.8636
 42
2.2352
 43
1.0000
 50
0.0000
  0
INSERT
  8
29
  2
RECT
 10
146.1900
 20
83.0734
 30
0.0000
 41
0.8636
 42
2.2352
 43
1.0000
 50
0.0000
  0
INSERT
  8
29
  2
RECT
 10
146.1900
 20
56.9266
 30
0.0000
 41
0.8636
 42
2.2352
 43
1.0000
 50
0.0000
  0
INSERT
  8
29
  2
RECT
 10
147.4600
 20
56.9266
 30
0.0000
 41
0.8636
 42
2.2352
 43
1.0000
 50
0.0000
  0
INSERT
  8
29
  2
RECT
 10
148.7300
 20
56.9266
 30
0.0000
 41
0.8636
 42
2.2352
 43
1.0000
 50
0.0000
  0
INSERT
  8
29
  2
RECT
 10
150.0000
 20
56.9266
 30
0.0000
 41
0.8636
 42
2.2352
 43
1.0000
 50
0.0000
  0
INSERT
  8
29
  2
RECT
 10
151.2700
 20
56.9266
 30
0.0000
 41
0.8636
 42
2.2352
 43
1.0000
 50
0.0000
  0
INSERT
  8
29
  2
RECT
 10
152.5400
 20
56.9266
 30
0.0000
 41
0.8636
 42
2.2352
 43
1.0000
 50
0.0000
  0
INSERT
  8
29
  2
RECT
 10
153.8100
 20
56.9266
 30
0.0000
 41
0.8636
 42
2.2352
 43
1.0000
 50
0.0000
  0
INSERT
  8
29
  2
RECT
 10
153.8100
 20
63.0734
 30
0.0000
 41
0.8636
 42
2.2352
 43
1.0000
 50
0.0000
  0
INSERT
  8
29
  2
RECT
 10
152.5400
 20
63.0734
 30
0.0000
 41
0.8636
 42
2.2352
 43
1.0000
 50
0.0000
  0
INSERT
  8
29
  2
RECT
 10
151.2700
 20
63.0734
 30
0.0000
 41
0.8636
 42
2.2352
 43
1.0000
 50
0.0000
  0
INSERT
  8
29
  2
RECT
 10
150.0000
 20
63.0734
 30
0.0000
 41
0.8636
 42
2.2352
 43
1.0000
 50
0.0000
  0
INSERT
  8
29
  2
RECT
 10
148.7300
 20
63.0734
 30
0.0000
 41
0.8636
 42
2.2352
 43
1.0000
 50
0.0000
  0
INSERT
  8
29
  2
RECT
 10
147.4600
 20
63.0734
 30
0.0000
 41
0.8636
 42
2.2352
 43
1.0000
 50
0.0000
  0
INSERT
  8
29
  2
RECT
 10
146.1900
 20
63.0734
 30
0.0000
 41
0.8636
 42
2.2352
 43
1.0000
 50
0.0000
  0
INSERT
  8
29
  2
RECT
 10
146.1900
 20
36.9266
 30
0.0000
 41
0.8636
 42
2.2352
 43
1.0000
 50
0.0000
  0
INSERT
  8
29
  2
RECT
 10
147.4600
 20
36.9266
 30
0.0000
 41
0.8636
 42
2.2352
 43
1.0000
 50
0.0000
  0
INSERT
  8
29
  2
RECT
 10
148.7300
 20
36.9266
 30
0.0000
 41
0.8636
 42
2.2352
 43
1.0000
 50
0.0000
  0
INSERT
  8
29
  2
RECT
 10
150.0000
 20
36.9266
 30
0.0000
 41
0.8636
 42
2.2352
 43
1.0000
 50
0.0000
  0
INSERT
  8
29
  2
RECT
 10
151.2700
 20
36.9266
 30
0.0000
 41
0.8636
 42
2.2352
 43
1.0000
 50
0.0000
  0
INSERT
  8
29
  2
RECT
 10
152.5400
 20
36.9266
 30
0.0000
 41
0.8636
 42
2.2352
 43
1.0000
 50
0.0000
  0
INSERT
  8
29
  2
RECT
 10
153.8100
 20
36.9266
 30
0.0000
 41
0.8636
 42
2.2352
 43
1.0000
 50
0.0000
  0
INSERT
  8
29
  2
RECT
 10
153.8100
 20
43.0734
 30
0.0000
 41
0.8636
 42
2.2352
 43
1.0000
 50
0.0000
  0
INSERT
  8
29
  2
RECT
 10
152.5400
 20
43.0734
 30
0.0000
 41
0.8636
 42
2.2352
 43
1.0000
 50
0.0000
  0
INSERT
  8
29
  2
RECT
 10
151.2700
 20
43.0734
 30
0.0000
 41
0.8636
 42
2.2352
 43
1.0000
 50
0.0000
  0
INSERT
  8
29
  2
RECT
 10
150.0000
 20
43.0734
 30
0.0000
 41
0.8636
 42
2.2352
 43
1.0000
 50
0.0000
  0
INSERT
  8
29
  2
RECT
 10
148.7300
 20
43.0734
 30
0.0000
 41
0.8636
 42
2.2352
 43
1.0000
 50
0.0000
  0
INSERT
  8
29
  2
RECT
 10
147.4600
 20
43.0734
 30
0.0000
 41
0.8636
 42
2.2352
 43
1.0000
 50
0.0000
  0
INSERT
  8
29
  2
RECT
 10
146.1900
 20
43.0734
 30
0.0000
 41
0.8636
 42
2.2352
 43
1.0000
 50
0.0000
  0
INSERT
  8
29
  2
RECT
 10
144.2850
 20
114.9708
 30
0.0000
 41
0.8636
 42
2.2352
 43
1.0000
 50
0.0000
  0
INSERT
  8
29
  2
RECT
 10
145.5550
 20
114.9708
 30
0.0000
 41
0.8636
 42
2.2352
 43
1.0000
 50
0.0000
  0
INSERT
  8
29
  2
RECT
 10
146.8250
 20
114.9708
 30
0.0000
 41
0.8636
 42
2.2352
 43
1.0000
 50
0.0000
  0
INSERT
  8
29
  2
RECT
 10
148.0950
 20
114.9708
 30
0.0000
 41
0.8636
 42
2.2352
 43
1.0000
 50
0.0000
  0
INSERT
  8
29
  2
RECT
 10
149.3650
 20
114.9708
 30
0.0000
 41
0.8636
 42
2.2352
 43
1.0000
 50
0.0000
  0
INSERT
  8
29
  2
RECT
 10
150.6350
 20
114.9708
 30
0.0000
 41
0.8636
 42
2.2352
 43
1.0000
 50
0.0000
  0
INSERT
  8
29
  2
RECT
 10
151.9050
 20
114.9708
 30
0.0000
 41
0.8636
 42
2.2352
 43
1.0000
 50
0.0000
  0
INSERT
  8
29
  2
RECT
 10
153.1750
 20
114.9708
 30
0.0000
 41
0.8636
 42
2.2352
 43
1.0000
 50
0.0000
  0
INSERT
  8
29
  2
RECT
 10
154.4450
 20
114.9708
 30
0.0000
 41
0.8636
 42
2.2352
 43
1.0000
 50
0.0000
  0
INSERT
  8
29
  2
RECT
 10
155.7150
 20
114.9708
 30
0.0000
 41
0.8636
 42
2.2352
 43
1.0000
 50
0.0000
  0
INSERT
  8
29
  2
RECT
 10
155.7150
 20
125.0292
 30
0.0000
 41
0.8636
 42
2.2352
 43
1.0000
 50
0.0000
  0
INSERT
  8
29
  2
RECT
 10
154.4450
 20
125.0292
 30
0.0000
 41
0.8636
 42
2.2352
 43
1.0000
 50
0.0000
  0
INSERT
  8
29
  2
RECT
 10
153.1750
 20
125.0292
 30
0.0000
 41
0.8636
 42
2.2352
 43
1.0000
 50
0.0000
  0
INSERT
  8
29
  2
RECT
 10
151.9050
 20
125.0292
 30
0.0000
 41
0.8636
 42
2.2352
 43
1.0000
 50
0.0000
  0
INSERT
  8
29
  2
RECT
 10
150.6350
 20
125.0292
 30
0.0000
 41
0.8636
 42
2.2352
 43
1.0000
 50
0.0000
  0
INSERT
  8
29
  2
RECT
 10
149.3650
 20
125.0292
 30
0.0000
 41
0.8636
 42
2.2352
 43
1.0000
 50
0.0000
  0
INSERT
  8
29
  2
RECT
 10
148.0950
 20
125.0292
 30
0.0000
 41
0.8636
 42
2.2352
 43
1.0000
 50
0.0000
  0
INSERT
  8
29
  2
RECT
 10
146.8250
 20
125.0292
 30
0.0000
 41
0.8636
 42
2.2352
 43
1.0000
 50
0.0000
  0
INSERT
  8
29
  2
RECT
 10
145.5550
 20
125.0292
 30
0.0000
 41
0.8636
 42
2.2352
 43
1.0000
 50
0.0000
  0
INSERT
  8
29
  2
RECT
 10
144.2850
 20
125.0292
 30
0.0000
 41
0.8636
 42
2.2352
 43
1.0000
 50
0.0000
  0
INSERT
  8
29
  2
OCTAGONP
 10
91.1100
 20
144.7300
 30
0.0000
 41
1.6256
 42
1.6256
 43
1.0000
 50
0.0000
  0
INSERT
  8
29
  2
OCTAGONP
 10
91.1100
 20
147.2700
 30
0.0000
 41
1.6256
 42
1.6256
 43
1.0000
 50
0.0000
  0
INSERT
  8
29
  2
OCTAGONP
 10
93.6500
 20
144.7300
 30
0.0000
 41
1.6256
 42
1.6256
 43
1.0000
 50
0.0000
  0
INSERT
  8
29
  2
OCTAGONP
 10
93.6500
 20
147.2700
 30
0.0000
 41
1.6256
 42
1.6256
 43
1.0000
 50
0.0000
  0
INSERT
  8
29
  2
OCTAGONP
 10
96.1900
 20
144.7300
 30
0.0000
 41
1.6256
 42
1.6256
 43
1.0000
 50
0.0000
  0
INSERT
  8
29
  2
OCTAGONP
 10
96.1900
 20
147.2700
 30
0.0000
 41
1.6256
 42
1.6256
 43
1.0000
 50
0.0000
  0
INSERT
  8
29
  2
OCTAGONP
 10
98.7300
 20
144.7300
 30
0.0000
 41
1.6256
 42
1.6256
 43
1.0000
 50
0.0000
  0
INSERT
  8
29
  2
OCTAGONP
 10
98.7300
 20
147.2700
 30
0.0000
 41
1.6256
 42
1.6256
 43
1.0000
 50
0.0000
  0
INSERT
  8
29
  2
OCTAGONP
 10
101.2700
 20
144.7300
 30
0.0000
 41
1.6256
 42
1.6256
 43
1.0000
 50
0.0000
  0
INSERT
  8
29
  2
OCTAGONP
 10
101.2700
 20
147.2700
 30
0.0000
 41
1.6256
 42
1.6256
 43
1.0000
 50
0.0000
  0
INSERT
  8
29
  2
OCTAGONP
 10
103.8100
 20
144.7300
 30
0.0000
 41
1.6256
 42
1.6256
 43
1.0000
 50
0.0000
  0
INSERT
  8
29
  2
OCTAGONP
 10
103.8100
 20
147.2700
 30
0.0000
 41
1.6256
 42
1.6256
 43
1.0000
 50
0.0000
  0
INSERT
  8
29
  2
OCTAGONP
 10
106.3500
 20
144.7300
 30
0.0000
 41
1.6256
 42
1.6256
 43
1.0000
 50
0.0000
  0
INSERT
  8
29
  2
OCTAGONP
 10
106.3500
 20
147.2700
 30
0.0000
 41
1.6256
 42
1.6256
 43
1.0000
 50
0.0000
  0
INSERT
  8
29
  2
OCTAGONP
 10
108.8900
 20
144.7300
 30
0.0000
 41
1.6256
 42
1.6256
 43
1.0000
 50
0.0000
  0
INSERT
  8
29
  2
OCTAGONP
 10
108.8900
 20
147.2700
 30
0.0000
 41
1.6256
 42
1.6256
 43
1.0000
 50
0.0000
  0
INSERT
  8
29
  2
OCTAGONP
 10
91.1100
 20
4.7300
 30
0.0000
 41
1.6256
 42
1.6256
 43
1.0000
 50
0.0000
  0
INSERT
  8
29
  2
OCTAGONP
 10
91.1100
 20
7.2700
 30
0.0000
 41
1.6256
 42
1.6256
 43
1.0000
 50
0.0000
  0
INSERT
  8
29
  2
OCTAGONP
 10
93.6500
 20
4.7300
 30
0.0000
 41
1.6256
 42
1.6256
 43
1.0000
 50
0.0000
  0
INSERT
  8
29
  2
OCTAGONP
 10
93.6500
 20
7.2700
 30
0.0000
 41
1.6256
 42
1.6256
 43
1.0000
 50
0.0000
  0
INSERT
  8
29
  2
OCTAGONP
 10
96.1900
 20
4.7300
 30
0.0000
 41
1.6256
 42
1.6256
 43
1.0000
 50
0.0000
  0
INSERT
  8
29
  2
OCTAGONP
 10
96.1900
 20
7.2700
 30
0.0000
 41
1.6256
 42
1.6256
 43
1.0000
 50
0.0000
  0
INSERT
  8
29
  2
OCTAGONP
 10
98.7300
 20
4.7300
 30
0.0000
 41
1.6256
 42
1.6256
 43
1.0000
 50
0.0000
  0
INSERT
  8
29
  2
OCTAGONP
 10
98.7300
 20
7.2700
 30
0.0000
 41
1.6256
 42
1.6256
 43
1.0000
 50
0.0000
  0
INSERT
  8
29
  2
OCTAGONP
 10
101.2700
 20
4.7300
 30
0.0000
 41
1.6256
 42
1.6256
 43
1.0000
 50
0.0000
  0
INSERT
  8
29
  2
OCTAGONP
 10
101.2700
 20
7.2700
 30
0.0000
 41
1.6256
 42
1.6256
 43
1.0000
 50
0.0000
  0
INSERT
  8
29
  2
OCTAGONP
 10
103.8100
 20
4.7300
 30
0.0000
 41
1.6256
 42
1.6256
 43
1.0000
 50
0.0000
  0
INSERT
  8
29
  2
OCTAGONP
 10
103.8100
 20
7.2700
 30
0.0000
 41
1.6256
 42
1.6256
 43
1.0000
 50
0.0000
  0
INSERT
  8
29
  2
OCTAGONP
 10
106.3500
 20
4.7300
 30
0.0000
 41
1.6256
 42
1.6256
 43
1.0000
 50
0.0000
  0
INSERT
  8
29
  2
OCTAGONP
 10
106.3500
 20
7.2700
 30
0.0000
 41
1.6256
 42
1.6256
 43
1.0000
 50
0.0000
  0
INSERT
  8
29
  2
OCTAGONP
 10
108.8900
 20
4.7300
 30
0.0000
 41
1.6256
 42
1.6256
 43
1.0000
 50
0.0000
  0
INSERT
  8
29
  2
OCTAGONP
 10
108.8900
 20
7.2700
 30
0.0000
 41
1.6256
 42
1.6256
 43
1.0000
 50
0.0000
  0
INSERT
  8
29
  2
LONGP100
 10
180.1900
 20
146.0000
 30
0.0000
 41
1.6256
 42
1.6256
 43
1.0000
 50
90.0000
  0
INSERT
  8
29
  2
LONGP100
 10
182.7300
 20
146.0000
 30
0.0000
 41
1.6256
 42
1.6256
 43
1.0000
 50
90.0000
  0
INSERT
  8
29
  2
LONGP100
 10
185.2700
 20
146.0000
 30
0.0000
 41
1.6256
 42
1.6256
 43
1.0000
 50
90.0000
  0
INSERT
  8
29
  2
LONGP100
 10
187.8100
 20
146.0000
 30
0.0000
 41
1.6256
 42
1.6256
 43
1.0000
 50
90.0000
  0
INSERT
  8
29
  2
RECT
 10
176.1900
 20
96.9266
 30
0.0000
 41
0.8636
 42
2.2352
 43
1.0000
 50
0.0000
  0
INSERT
  8
29
  2
RECT
 10
177.4600
 20
96.9266
 30
0.0000
 41
0.8636
 42
2.2352
 43
1.0000
 50
0.0000
  0
INSERT
  8
29
  2
RECT
 10
178.7300
 20
96.9266
 30
0.0000
 41
0.8636
 42
2.2352
 43
1.0000
 50
0.0000
  0
INSERT
  8
29
  2
RECT
 10
180.0000
 20
96.9266
 30
0.0000
 41
0.8636
 42
2.2352
 43
1.0000
 50
0.0000
  0
INSERT
  8
29
  2
RECT
 10
181.2700
 20
96.9266
 30
0.0000
 41
0.8636
 42
2.2352
 43
1.0000
 50
0.0000
  0
INSERT
  8
29
  2
RECT
 10
182.5400
 20
96.9266
 30
0.0000
 41
0.8636
 42
2.2352
 43
1.0000
 50
0.0000
  0
INSERT
  8
29
  2
RECT
 10
183.8100
 20
96.9266
 30
0.0000
 41
0.8636
 42
2.2352
 43
1.0000
 50
0.0000
  0
INSERT
  8
29
  2
RECT
 10
183.8100
 20
103.0734
 30
0.0000
 41
0.8636
 42
2.2352
 43
1.0000
 50
0.0000
  0
INSERT
  8
29
  2
RECT
 10
182.5400
 20
103.0734
 30
0.0000
 41
0.8636
 42
2.2352
 43
1.0000
 50
0.0000
  0
INSERT
  8
29
  2
RECT
 10
181.2700
 20
103.0734
 30
0.0000
 41
0.8636
 42
2.2352
 43
1.0000
 50
0.0000
  0
INSERT
  8
29
  2
RECT
 10
180.0000
 20
103.0734
 30
0.0000
 41
0.8636
 42
2.2352
 43
1.0000
 50
0.0000
  0
INSERT
  8
29
  2
RECT
 10
178.7300
 20
103.0734
 30
0.0000
 41
0.8636
 42
2.2352
 43
1.0000
 50
0.0000
  0
INSERT
  8
29
  2
RECT
 10
177.4600
 20
103.0734
 30
0.0000
 41
0.8636
 42
2.2352
 43
1.0000
 50
0.0000
  0
INSERT
  8
29
  2
RECT
 10
176.1900
 20
103.0734
 30
0.0000
 41
0.8636
 42
2.2352
 43
1.0000
 50
0.0000
  0
INSERT
  8
29
  2
RECT
 10
176.1900
 20
76.9266
 30
0.0000
 41
0.8636
 42
2.2352
 43
1.0000
 50
0.0000
  0
INSERT
  8
29
  2
RECT
 10
177.4600
 20
76.9266
 30
0.0000
 41
0.8636
 42
2.2352
 43
1.0000
 50
0.0000
  0
INSERT
  8
29
  2
RECT
 10
178.7300
 20
76.9266
 30
0.0000
 41
0.8636
 42
2.2352
 43
1.0000
 50
0.0000
  0
INSERT
  8
29
  2
RECT
 10
180.0000
 20
76.9266
 30
0.0000
 41
0.8636
 42
2.2352
 43
1.0000
 50
0.0000
  0
INSERT
  8
29
  2
RECT
 10
181.2700
 20
76.9266
 30
0.0000
 41
0.8636
 42
2.2352
 43
1.0000
 50
0.0000
  0
INSERT
  8
29
  2
RECT
 10
182.5400
 20
76.9266
 30
0.0000
 41
0.8636
 42
2.2352
 43
1.0000
 50
0.0000
  0
INSERT
  8
29
  2
RECT
 10
183.8100
 20
76.9266
 30
0.0000
 41
0.8636
 42
2.2352
 43
1.0000
 50
0.0000
  0
INSERT
  8
29
  2
RECT
 10
183.8100
 20
83.0734
 30
0.0000
 41
0.8636
 42
2.2352
 43
1.0000
 50
0.0000
  0
INSERT
  8
29
  2
RECT
 10
182.5400
 20
83.0734
 30
0.0000
 41
0.8636
 42
2.2352
 43
1.0000
 50
0.0000
  0
INSERT
  8
29
  2
RECT
 10
181.2700
 20
83.0734
 30
0.0000
 41
0.8636
 42
2.2352
 43
1.0000
 50
0.0000
  0
INSERT
  8
29
  2
RECT
 10
180.0000
 20
83.0734
 30
0.0000
 41
0.8636
 42
2.2352
 43
1.0000
 50
0.0000
  0
INSERT
  8
29
  2
RECT
 10
178.7300
 20
83.0734
 30
0.0000
 41
0.8636
 42
2.2352
 43
1.0000
 50
0.0000
  0
INSERT
  8
29
  2
RECT
 10
177.4600
 20
83.0734
 30
0.0000
 41
0.8636
 42
2.2352
 43
1.0000
 50
0.0000
  0
INSERT
  8
29
  2
RECT
 10
176.1900
 20
83.0734
 30
0.0000
 41
0.8636
 42
2.2352
 43
1.0000
 50
0.0000
  0
INSERT
  8
29
  2
RECT
 10
176.1900
 20
56.9266
 30
0.0000
 41
0.8636
 42
2.2352
 43
1.0000
 50
0.0000
  0
INSERT
  8
29
  2
RECT
 10
177.4600
 20
56.9266
 30
0.0000
 41
0.8636
 42
2.2352
 43
1.0000
 50
0.0000
  0
INSERT
  8
29
  2
RECT
 10
178.7300
 20
56.9266
 30
0.0000
 41
0.8636
 42
2.2352
 43
1.0000
 50
0.0000
  0
INSERT
  8
29
  2
RECT
 10
180.0000
 20
56.9266
 30
0.0000
 41
0.8636
 42
2.2352
 43
1.0000
 50
0.0000
  0
INSERT
  8
29
  2
RECT
 10
181.2700
 20
56.9266
 30
0.0000
 41
0.8636
 42
2.2352
 43
1.0000
 50
0.0000
  0
INSERT
  8
29
  2
RECT
 10
182.5400
 20
56.9266
 30
0.0000
 41
0.8636
 42
2.2352
 43
1.0000
 50
0.0000
  0
INSERT
  8
29
  2
RECT
 10
183.8100
 20
56.9266
 30
0.0000
 41
0.8636
 42
2.2352
 43
1.0000
 50
0.0000
  0
INSERT
  8
29
  2
RECT
 10
183.8100
 20
63.0734
 30
0.0000
 41
0.8636
 42
2.2352
 43
1.0000
 50
0.0000
  0
INSERT
  8
29
  2
RECT
 10
182.5400
 20
63.0734
 30
0.0000
 41
0.8636
 42
2.2352
 43
1.0000
 50
0.0000
  0
INSERT
  8
29
  2
RECT
 10
181.2700
 20
63.0734
 30
0.0000
 41
0.8636
 42
2.2352
 43
1.0000
 50
0.0000
  0
INSERT
  8
29
  2
RECT
 10
180.0000
 20
63.0734
 30
0.0000
 41
0.8636
 42
2.2352
 43
1.0000
 50
0.0000
  0
INSERT
  8
29
  2
RECT
 10
178.7300
 20
63.0734
 30
0.0000
 41
0.8636
 42
2.2352
 43
1.0000
 50
0.0000
  0
INSERT
  8
29
  2
RECT
 10
177.4600
 20
63.0734
 30
0.0000
 41
0.8636
 42
2.2352
 43
1.0000
 50
0.0000
  0
INSERT
  8
29
  2
RECT
 10
176.1900
 20
63.0734
 30
0.0000
 41
0.8636
 42
2.2352
 43
1.0000
 50
0.0000
  0
INSERT
  8
29
  2
RECT
 10
176.1900
 20
36.9266
 30
0.0000
 41
0.8636
 42
2.2352
 43
1.0000
 50
0.0000
  0
INSERT
  8
29
  2
RECT
 10
177.4600
 20
36.9266
 30
0.0000
 41
0.8636
 42
2.2352
 43
1.0000
 50
0.0000
  0
INSERT
  8
29
  2
RECT
 10
178.7300
 20
36.9266
 30
0.0000
 41
0.8636
 42
2.2352
 43
1.0000
 50
0.0000
  0
INSERT
  8
29
  2
RECT
 10
180.0000
 20
36.9266
 30
0.0000
 41
0.8636
 42
2.2352
 43
1.0000
 50
0.0000
  0
INSERT
  8
29
  2
RECT
 10
181.2700
 20
36.9266
 30
0.0000
 41
0.8636
 42
2.2352
 43
1.0000
 50
0.0000
  0
INSERT
  8
29
  2
RECT
 10
182.5400
 20
36.9266
 30
0.0000
 41
0.8636
 42
2.2352
 43
1.0000
 50
0.0000
  0
INSERT
  8
29
  2
RECT
 10
183.8100
 20
36.9266
 30
0.0000
 41
0.8636
 42
2.2352
 43
1.0000
 50
0.0000
  0
INSERT
  8
29
  2
RECT
 10
183.8100
 20
43.0734
 30
0.0000
 41
0.8636
 42
2.2352
 43
1.0000
 50
0.0000
  0
INSERT
  8
29
  2
RECT
 10
182.5400
 20
43.0734
 30
0.0000
 41
0.8636
 42
2.2352
 43
1.0000
 50
0.0000
  0
INSERT
  8
29
  2
RECT
 10
181.2700
 20
43.0734
 30
0.0000
 41
0.8636
 42
2.2352
 43
1.0000
 50
0.0000
  0
INSERT
  8
29
  2
RECT
 10
180.0000
 20
43.0734
 30
0.0000
 41
0.8636
 42
2.2352
 43
1.0000
 50
0.0000
  0
INSERT
  8
29
  2
RECT
 10
178.7300
 20
43.0734
 30
0.0000
 41
0.8636
 42
2.2352
 43
1.0000
 50
0.0000
  0
INSERT
  8
29
  2
RECT
 10
177.4600
 20
43.0734
 30
0.0000
 41
0.8636
 42
2.2352
 43
1.0000
 50
0.0000
  0
INSERT
  8
29
  2
RECT
 10
176.1900
 20
43.0734
 30
0.0000
 41
0.8636
 42
2.2352
 43
1.0000
 50
0.0000
  0
INSERT
  8
29
  2
RECT
 10
174.2850
 20
114.9708
 30
0.0000
 41
0.8636
 42
2.2352
 43
1.0000
 50
0.0000
  0
INSERT
  8
29
  2
RECT
 10
175.5550
 20
114.9708
 30
0.0000
 41
0.8636
 42
2.2352
 43
1.0000
 50
0.0000
  0
INSERT
  8
29
  2
RECT
 10
176.8250
 20
114.9708
 30
0.0000
 41
0.8636
 42
2.2352
 43
1.0000
 50
0.0000
  0
INSERT
  8
29
  2
RECT
 10
178.0950
 20
114.9708
 30
0.0000
 41
0.8636
 42
2.2352
 43
1.0000
 50
0.0000
  0
INSERT
  8
29
  2
RECT
 10
179.3650
 20
114.9708
 30
0.0000
 41
0.8636
 42
2.2352
 43
1.0000
 50
0.0000
  0
INSERT
  8
29
  2
RECT
 10
180.6350
 20
114.9708
 30
0.0000
 41
0.8636
 42
2.2352
 43
1.0000
 50
0.0000
  0
INSERT
  8
29
  2
RECT
 10
181.9050
 20
114.9708
 30
0.0000
 41
0.8636
 42
2.2352
 43
1.0000
 50
0.0000
  0
INSERT
  8
29
  2
RECT
 10
183.1750
 20
114.9708
 30
0.0000
 41
0.8636
 42
2.2352
 43
1.0000
 50
0.0000
  0
INSERT
  8
29
  2
RECT
 10
184.4450
 20
114.9708
 30
0.0000
 41
0.8636
 42
2.2352
 43
1.0000
 50
0.0000
  0
INSERT
  8
29
  2
RECT
 10
185.7150
 20
114.9708
 30
0.0000
 41
0.8636
 42
2.2352
 43
1.0000
 50
0.0000
  0
INSERT
  8
29
  2
RECT
 10
185.7150
 20
125.0292
 30
0.0000
 41
0.8636
 42
2.2352
 43
1.0000
 50
0.0000
  0
INSERT
  8
29
  2
RECT
 10
184.4450
 20
125.0292
 30
0.0000
 41
0.8636
 42
2.2352
 43
1.0000
 50
0.0000
  0
INSERT
  8
29
  2
RECT
 10
183.1750
 20
125.0292
 30
0.0000
 41
0.8636
 42
2.2352
 43
1.0000
 50
0.0000
  0
INSERT
  8
29
  2
RECT
 10
181.9050
 20
125.0292
 30
0.0000
 41
0.8636
 42
2.2352
 43
1.0000
 50
0.0000
  0
INSERT
  8
29
  2
RECT
 10
180.6350
 20
125.0292
 30
0.0000
 41
0.8636
 42
2.2352
 43
1.0000
 50
0.0000
  0
INSERT
  8
29
  2
RECT
 10
179.3650
 20
125.0292
 30
0.0000
 41
0.8636
 42
2.2352
 43
1.0000
 50
0.0000
  0
INSERT
  8
29
  2
RECT
 10
178.0950
 20
125.0292
 30
0.0000
 41
0.8636
 42
2.2352
 43
1.0000
 50
0.0000
  0
INSERT
  8
29
  2
RECT
 10
176.8250
 20
125.0292
 30
0.0000
 41
0.8636
 42
2.2352
 43
1.0000
 50
0.0000
  0
INSERT
  8
29
  2
RECT
 10
175.5550
 20
125.0292
 30
0.0000
 41
0.8636
 42
2.2352
 43
1.0000
 50
0.0000
  0
INSERT
  8
29
  2
RECT
 10
174.2850
 20
125.0292
 30
0.0000
 41
0.8636
 42
2.2352
 43
1.0000
 50
0.0000
  0
ENDSEC
  0
EOF
